<?xml version="1.0" encoding="UTF-8"?>
<svg version="1.1" xmlns="http://www.w3.org/2000/svg" width="878" height="878">
<path d="M0 0 C4.35278339 0.02278838 8.70458776 0.00923475 13.05733776 -0.01377964 C32.72933125 -0.10169991 51.6932706 0.69222762 71.12727356 3.99855042 C75.41554519 4.722326 79.71510571 5.36505489 84.015625 6.01135254 C94.30318468 7.60068863 104.17099595 9.95165998 114.13623047 12.92333984 C117.61826825 13.92018403 121.14089986 14.74270321 124.66308594 15.58398438 C130.12549027 16.90557683 135.37561682 18.51212167 140.60058594 20.59179688 C143.4090556 21.58646322 146.24899457 22.27074993 149.14208984 22.97216797 C152.4827826 23.85294588 155.68742096 25.0416241 158.91308594 26.27148438 C159.60225098 26.53171387 160.29141602 26.79194336 161.00146484 27.06005859 C166.54797579 29.18841553 171.92532348 31.6134344 177.29199219 34.16210938 C179.84968341 35.34729785 182.40405344 36.39721747 185.03808594 37.39648438 C197.56234104 42.30080434 209.41658227 49.12436253 221.22558594 55.52148438 C222.04414062 55.96105469 222.86269531 56.400625 223.70605469 56.85351562 C233.03951563 61.93676666 242.0474053 67.56385535 250.69433594 73.74023438 C253.52052354 75.72903305 256.39933373 77.62482888 259.28808594 79.52148438 C267.4827757 84.9671902 274.99319444 91.13406677 282.58105469 97.38476562 C284.88218257 99.24402257 287.21466375 101.02360541 289.60058594 102.77148438 C292.77522467 105.12046102 295.46087948 107.69095158 298.22558594 110.52148438 C299.88510602 112.02938718 301.55255404 113.52858718 303.22558594 115.02148438 C306.66387815 118.10024971 310.0026606 121.21591993 313.22558594 124.52148438 C314.72420536 126.02286368 316.22435391 127.52271742 317.72558594 129.02148438 C319.22558594 130.52148438 320.72558594 132.02148438 322.22558594 133.52148438 C323.04542969 134.33359375 323.86527344 135.14570313 324.70996094 135.98242188 C331.54085075 142.87695352 337.88846773 150.18177964 343.97558594 157.73632812 C345.56261035 159.70082188 347.16866476 161.6500162 348.78808594 163.58789062 C349.61308594 164.57660156 350.43808594 165.5653125 351.28808594 166.58398438 C352.0421875 167.48246094 352.79628906 168.3809375 353.57324219 169.30664062 C355.22558594 171.52148438 355.22558594 171.52148438 355.22558594 173.52148438 C355.88558594 173.52148438 356.54558594 173.52148438 357.22558594 173.52148438 C360.22558594 177.90609976 360.22558594 177.90609976 360.22558594 180.52148438 C360.88558594 180.52148438 361.54558594 180.52148438 362.22558594 180.52148438 C363.95977208 182.88628366 365.57657725 185.24794998 367.16308594 187.70898438 C367.60587891 188.38251953 368.04867187 189.05605469 368.50488281 189.75 C375.22558594 200.01634978 375.22558594 200.01634978 375.22558594 202.52148438 C375.88558594 202.52148438 376.54558594 202.52148438 377.22558594 202.52148438 C377.71027344 203.3696875 378.19496094 204.21789062 378.69433594 205.09179688 C379.17386719 205.93085571 379.17386719 205.93085571 379.66308594 206.78686523 C380.38211535 208.04533193 381.1008572 209.30396297 381.81933594 210.56274414 C383.62532516 213.72596875 385.43467738 216.88707353 387.25683594 220.04101562 C398.47944026 239.52470369 408.51352812 259.29105408 416.09667969 280.49414062 C417.37192474 283.91391542 418.7677031 287.27401179 420.16308594 290.64648438 C422.98849869 297.54649616 425.1339349 304.57057718 427.14746094 311.74414062 C427.80599926 314.05141077 428.50692124 316.34777658 429.28027344 318.61914062 C430.2815103 321.69318602 430.96087542 324.7280358 431.60058594 327.89648438 C432.63171879 332.89872867 433.81450347 337.81442531 435.12792969 342.75195312 C437.55686568 352.2177823 438.99116074 361.8000168 440.41308594 371.45898438 C440.67479112 373.18890276 440.9371584 374.91872111 441.20019531 376.6484375 C441.45273612 378.32347921 441.70470986 379.99860654 441.95605469 381.67382812 C442.06958786 382.43026108 442.18312103 383.18669403 442.3000946 383.96604919 C442.62122975 386.14960818 442.92539707 388.33495738 443.22558594 390.52148438 C443.32212967 391.16209808 443.4186734 391.80271179 443.5181427 392.46273804 C444.60310217 400.55021918 444.43005307 408.73626461 444.46386719 416.88085938 C444.46794271 417.71901436 444.47201824 418.55716934 444.47621727 419.42072296 C444.49701712 423.87618248 444.51133275 428.33161197 444.52075195 432.78710938 C444.52952073 436.40772811 444.55018386 440.02795158 444.58227539 443.6484375 C444.76367703 464.57227368 444.31843707 484.78021887 440.75157166 505.44322205 C440.02015377 509.72374917 439.37920858 514.01675617 438.73454285 518.31106567 C437.24030367 528.01006143 435.10533909 537.35033522 432.31152344 546.75195312 C431.44734453 549.75171084 430.75794864 552.64036542 430.22558594 555.70898438 C429.22209627 561.21871068 427.33446502 566.43151272 425.51855469 571.71289062 C424.31839225 575.20901599 423.22800779 578.73156627 422.16308594 582.27148438 C419.28739189 591.66618205 415.8448086 600.52628057 411.65527344 609.41601562 C410.45951555 612.01335857 409.37424896 614.60361923 408.35058594 617.27148438 C403.39776689 629.86754268 397.15336348 641.78529464 390.39306641 653.48925781 C388.34974186 657.04606114 386.35390143 660.62954611 384.35058594 664.20898438 C382.98321982 666.65102925 381.60762922 669.0876451 380.22558594 671.52148438 C379.41734375 672.98521484 379.41734375 672.98521484 378.59277344 674.47851562 C377.91601562 675.48978516 377.91601562 675.48978516 377.22558594 676.52148438 C376.56558594 676.52148438 375.90558594 676.52148438 375.22558594 676.52148438 C374.85240234 677.83439453 374.85240234 677.83439453 374.47167969 679.17382812 C373.16145635 682.69376982 371.56085844 685.1086416 369.28808594 688.08398438 C367.22758081 690.79922945 365.29357813 693.40294643 363.59667969 696.36132812 C363.14421875 697.07417969 362.69175781 697.78703125 362.22558594 698.52148438 C361.56558594 698.52148438 360.90558594 698.52148438 360.22558594 698.52148438 C359.91621094 699.30523438 359.60683594 700.08898437 359.28808594 700.89648438 C358.22558594 703.52148438 358.22558594 703.52148438 357.22558594 705.52148438 C356.56558594 705.52148438 355.90558594 705.52148438 355.22558594 705.52148438 C354.99613281 706.04871094 354.76667969 706.5759375 354.53027344 707.11914062 C352.79138052 710.32099435 350.60255646 713.10947998 348.35058594 715.95898438 C347.87097412 716.56863037 347.3913623 717.17827637 346.8972168 717.80639648 C342.47665877 723.34798117 337.72680686 728.53771892 332.85449219 733.68164062 C330.25693577 736.41656914 330.25693577 736.41656914 328.19042969 739.08007812 C326.0311346 741.76309887 323.690083 744.117097 321.22558594 746.52148438 C320.40058594 747.34648438 319.57558594 748.17148437 318.72558594 749.02148438 C316.22558594 751.52148438 313.72558594 754.02148438 311.22558594 756.52148438 C310.39285156 757.36195313 309.56011719 758.20242188 308.70214844 759.06835938 C302.20316437 765.50583886 295.24902698 771.39602002 288.13574219 777.13867188 C286.09616451 778.80866165 284.08769535 780.49129084 282.09667969 782.21679688 C274.80465029 788.53007487 267.27065402 794.18071686 259.22558594 799.52148438 C257.9466682 800.37784928 256.66803134 801.23463378 255.38964844 802.09179688 C252.22492843 804.21028608 249.05342263 806.31834231 245.87939453 808.42285156 C243.67725972 809.88574005 241.4831587 811.36052761 239.28808594 812.83398438 C229.23853688 819.52109033 229.23853688 819.52109033 224.63964844 821.80664062 C220.91593349 823.67701919 217.28227657 825.6799609 213.63671875 827.69726562 C200.77685128 834.80391847 187.89040752 841.11022515 174.22558594 846.52148438 C172.50005677 847.21091629 170.77479506 847.90101797 169.04980469 848.59179688 C158.73730469 852.71679687 158.73730469 852.71679687 156.32080078 853.67871094 C154.74579841 854.31223555 153.18037471 854.96965591 151.62011719 855.63867188 C148.92155976 856.63357233 146.18365004 857.29674215 143.38964844 857.96777344 C139.61330607 858.93401266 135.92954863 860.18679982 132.22558594 861.39648438 C124.35541955 863.92272012 116.46809656 866.14055606 108.41503906 868.0078125 C106.79073111 868.38889456 105.17014673 868.78592239 103.55175781 869.19140625 C94.46608258 871.4064372 85.31676188 872.87094386 76.07666016 874.25634766 C73.46531298 874.64802522 70.8551659 875.04703535 68.24511719 875.44726562 C66.55637962 875.70420044 64.86757961 875.96072524 63.17871094 876.21679688 C62.41286682 876.3334671 61.64702271 876.45013733 60.85797119 876.57034302 C58.64885355 876.90063471 56.4379298 877.2136174 54.22558594 877.52148438 C53.58276672 877.61876328 52.93994751 877.71604218 52.27764893 877.81626892 C44.19293125 878.90078492 36.00803431 878.72596302 27.86621094 878.75976562 C27.02805595 878.76384115 26.18990097 878.76791668 25.32634735 878.77211571 C20.87088783 878.79291556 16.41545834 878.80723118 11.95996094 878.81665039 C8.3393422 878.82541916 4.71911873 878.84608229 1.09863281 878.87817383 C-20.95139297 879.06933971 -42.01140497 878.29561089 -63.77441406 874.52148438 C-66.89814154 874.01845285 -70.02317882 873.52432323 -73.14848328 873.03120422 C-83.47396056 871.35258751 -93.50219385 868.92952379 -103.57080078 866.11962891 C-106.44262839 865.34010557 -109.33155382 864.6445855 -112.22509766 863.95092773 C-118.37047107 862.47571598 -124.288703 860.72980933 -130.19238281 858.45507812 C-132.9014758 857.47554223 -135.60930038 856.73541388 -138.39941406 856.02148438 C-142.61682257 854.91352112 -146.40738376 853.46335116 -150.34863281 851.61523438 C-153.18004924 850.33858929 -156.05597034 849.24280172 -158.96191406 848.14648438 C-176.26143742 841.54376606 -192.53714127 833.38007351 -208.77441406 824.52148438 C-209.78890625 823.98394531 -210.80339844 823.44640625 -211.84863281 822.89257812 C-216.53047529 820.3985125 -220.67895716 817.91486295 -224.77441406 814.52148438 C-225.66515625 814.08320312 -226.55589844 813.64492188 -227.47363281 813.19335938 C-231.09155941 811.36084744 -234.42181265 809.22649128 -237.77441406 806.95898438 C-238.4230542 806.52279785 -239.07169434 806.08661133 -239.73999023 805.63720703 C-250.06565841 798.65834152 -260.13710217 791.43340656 -269.77441406 783.52148438 C-270.65613281 782.81378906 -271.53785156 782.10609375 -272.44628906 781.37695312 C-280.00501923 775.2808586 -287.36582038 768.9512055 -294.21972656 762.06445312 C-297.4745206 758.82458933 -300.88336283 755.76625204 -304.31347656 752.71484375 C-307.81029306 749.55425961 -310.77490496 746.16992573 -313.77441406 742.52148438 C-315.42640904 740.84027405 -317.09375857 739.1740438 -318.77441406 737.52148438 C-326.88309388 729.17821035 -334.40344292 720.5153899 -341.44824219 711.25927734 C-342.80182289 709.48556831 -344.16898486 707.72311924 -345.54003906 705.96289062 C-349.45961572 700.91660272 -353.26476023 695.86557265 -356.77441406 690.52148438 C-357.83402344 688.966875 -357.83402344 688.966875 -358.91503906 687.38085938 C-359.61113281 686.35476563 -360.30722656 685.32867188 -361.02441406 684.27148438 C-362.08402344 682.716875 -362.08402344 682.716875 -363.16503906 681.13085938 C-364.77441406 678.52148438 -364.77441406 678.52148438 -364.77441406 676.52148438 C-365.43441406 676.52148438 -366.09441406 676.52148438 -366.77441406 676.52148438 C-367.43441406 674.21148438 -368.09441406 671.90148437 -368.77441406 669.52148438 C-369.43441406 669.52148438 -370.09441406 669.52148438 -370.77441406 669.52148438 C-371.13792969 668.8434375 -371.50144531 668.16539062 -371.87597656 667.46679688 C-374.41861012 662.75966501 -376.99567926 658.09389984 -379.77441406 653.52148438 C-387.66178527 640.46441131 -394.50840018 626.7622179 -399.97753906 612.51367188 C-400.82470263 610.30800079 -400.82470263 610.30800079 -402.33691406 607.45898438 C-403.83630853 604.39500439 -404.858337 601.36879069 -405.89550781 598.12695312 C-406.90531927 595.13342316 -408.05268846 592.21031624 -409.21191406 589.27148438 C-411.32464247 583.8405669 -413.1295796 578.37393361 -414.78222656 572.78710938 C-415.55204032 570.25339167 -416.37445532 567.76246687 -417.23535156 565.25976562 C-418.86885966 560.38784561 -420.10764517 555.46062068 -421.27441406 550.45898438 C-421.60022461 549.07283936 -421.60022461 549.07283936 -421.93261719 547.65869141 C-423.60046477 540.46827689 -425.03986945 533.26579157 -426.328125 525.99707031 C-426.88069757 522.93192486 -427.45635536 519.87139982 -428.03222656 516.81054688 C-428.25716797 515.61123535 -428.48210937 514.41192383 -428.71386719 513.17626953 C-429.16190328 510.78770104 -429.61107369 508.39934496 -430.06152344 506.01123047 C-430.37186523 504.34568115 -430.37186523 504.34568115 -430.68847656 502.64648438 C-430.87361816 501.6590625 -431.05875977 500.67164063 -431.24951172 499.65429688 C-434.35986573 481.09054682 -433.93618616 462.08953112 -433.90478516 443.33105469 C-433.89942227 439.52730323 -433.90476548 435.72366979 -433.91113281 431.91992188 C-433.91871855 412.87833785 -433.83837824 394.16876521 -430.39941406 375.39648438 C-429.9434221 372.80538477 -429.48769173 370.21423913 -429.03222656 367.62304688 C-428.8134082 366.40004883 -428.59458984 365.17705078 -428.36914062 363.91699219 C-427.86274045 361.0257715 -427.39189196 358.13464072 -426.95410156 355.23242188 C-425.46859844 345.41101693 -423.13220589 336.04726772 -420.34130859 326.51806641 C-419.5485234 323.72590565 -418.87886351 320.90849706 -418.21191406 318.08398438 C-417.05965989 313.37139429 -415.52978758 308.90969293 -413.80957031 304.37695312 C-412.6748068 301.24671868 -411.71986146 298.0887597 -410.77441406 294.89648438 C-409.3847342 290.28601705 -407.75322677 285.9878192 -405.70800781 281.63476562 C-404.73858803 279.44038862 -403.99526 277.24620905 -403.27441406 274.95898438 C-402.09881465 271.28603054 -400.57686204 268.00013949 -398.79394531 264.58789062 C-397.73187817 262.43527179 -396.87489227 260.26569778 -396.02441406 258.02148438 C-389.39737944 241.1030548 -379.83568832 225.21984783 -370.77441406 209.52148438 C-370.11441406 209.52148438 -369.45441406 209.52148438 -368.77441406 209.52148438 C-368.11441406 207.21148437 -367.45441406 204.90148437 -366.77441406 202.52148438 C-366.11441406 202.52148438 -365.45441406 202.52148438 -364.77441406 202.52148438 C-364.51402344 201.79832031 -364.25363281 201.07515625 -363.98535156 200.33007812 C-362.73389582 197.42750819 -361.24956266 195.14106748 -359.39941406 192.58398438 C-357.49318199 189.93457372 -355.61759428 187.28500515 -353.81347656 184.56445312 C-346.12608052 173.09226632 -337.38844554 162.29317164 -328.07519531 152.11132812 C-324.8767064 148.51099171 -321.89324227 144.75021798 -318.91503906 140.96679688 C-316.72201161 138.46162318 -314.38686699 136.57382739 -311.77441406 134.52148438 C-310.63624683 133.28100997 -309.52999462 132.01029345 -308.46191406 130.70898438 C-305.47655358 127.20980368 -302.29215503 124.20747941 -298.76660156 121.25976562 C-296.31783155 119.12309375 -294.06574438 116.82625358 -291.77441406 114.52148438 C-283.70902386 106.68837111 -275.40056785 99.42343476 -266.37451172 92.72314453 C-264.76488366 91.51432712 -263.17941687 90.27945029 -261.59863281 89.03320312 C-254.12675867 83.15420137 -246.39412406 77.80200385 -238.43261719 72.60839844 C-236.1979315 71.1436133 -233.98711917 69.64419974 -231.77441406 68.14648438 C-228.1921111 65.7582824 -224.53817176 63.61246088 -220.77441406 61.52148438 C-217.37004298 59.58416813 -213.97320009 57.63758517 -210.59082031 55.66210938 C-202.39763909 50.90160552 -194.05728492 46.56468904 -185.54882812 42.39697266 C-183.1522996 41.21453577 -180.77756161 39.99037818 -178.39941406 38.77148438 C-169.77803675 34.4821006 -160.67833464 31.34953248 -151.63793945 28.07080078 C-148.07563433 26.7724213 -144.54747096 25.45234606 -141.07519531 23.92773438 C-137.95955291 22.6003601 -134.89269074 21.55033152 -131.64941406 20.58398438 C-126.63567961 19.08257911 -126.63567961 19.08257911 -121.64160156 17.51757812 C-114.10855671 15.11040214 -106.52960371 13.21234772 -98.82519531 11.45898438 C-95.49474536 10.69950286 -92.19871009 9.84494918 -88.89941406 8.95898438 C-82.5139532 7.36047062 -76.07512163 6.32970148 -69.56591797 5.38647461 C-65.63605418 4.81116002 -61.72090897 4.17716492 -57.80541992 3.51147461 C-38.50172381 0.37834913 -19.52410755 -0.10327441 0 0 Z " fill="#F4EFE7" transform="translate(433.7744140625,-0.521484375)"/>
<path d="M0 0 C5.06005123 0.00768757 10.12008753 0.00052697 15.18013954 -0.0041585 C23.66255103 -0.00958592 32.14488363 -0.00250005 40.6272831 0.01186323 C50.40287929 0.02822616 60.17828807 0.02286266 69.95387983 0.00638402 C78.3935186 -0.00726689 86.83310127 -0.0091342 95.27274752 -0.00129998 C100.29360113 0.00335136 105.31436682 0.00407105 110.33521461 -0.00590944 C115.05015845 -0.01463116 119.76486207 -0.00846305 124.4797802 0.00877333 C126.19976975 0.01270872 127.91977985 0.01165529 129.63976097 0.00498533 C139.59938144 -0.03005194 148.4739812 0.72298948 158.14388466 3.40297651 C160.01733568 3.82655341 161.89216041 4.24414622 163.76888466 4.65297651 C189.61459368 11.24243733 211.06525878 24.00573013 230.14388466 42.40297651 C230.92247841 43.1184062 231.70107216 43.83383589 232.50325966 44.57094526 C254.98851608 65.82030993 267.15088042 96.39548275 272.14388466 126.40297651 C272.32040565 127.39192915 272.49692665 128.38088179 272.67879677 129.39980268 C273.4290163 134.76893439 273.30647686 140.17986614 273.31185341 145.59047651 C273.31518181 146.76577925 273.31851021 147.94108198 273.32193947 149.15199995 C273.32699143 151.63653375 273.32934833 154.1210743 273.32918739 156.60561323 C273.33136118 160.36240386 273.34950068 164.11889451 273.36849403 167.87563276 C273.40595302 183.32017359 272.98839682 198.05116253 268.83138466 213.02797651 C268.50327797 214.23224287 268.50327797 214.23224287 268.16854286 215.46083784 C258.2470812 250.9881371 234.75443326 285.13704642 202.17708778 303.51235151 C198.17639163 305.65018721 194.10291746 307.60983735 189.99007607 309.52114058 C188.35316454 310.30301368 186.75101707 311.15676368 185.15560341 312.02016401 C167.35576268 321.31750978 145.94987409 323.57770916 126.18172646 323.48134565 C124.67132112 323.47782469 123.16091441 323.47485915 121.65050697 323.472404 C118.40996073 323.4667527 115.16943156 323.45875151 111.92889404 323.4493804 C106.79625654 323.43614135 101.66369355 323.43795048 96.53104591 323.44361067 C95.66256655 323.44453075 94.79408718 323.44545083 93.89929026 323.44639879 C91.22626427 323.449369 88.55323854 323.45253344 85.88021278 323.45571089 C74.83913923 323.46849191 63.79842126 323.47048825 52.75741005 323.42714643 C44.68929982 323.39558173 36.62172902 323.39240215 28.55360347 323.42190593 C24.29126608 323.43640661 20.03000842 323.43678212 15.76776123 323.4025054 C11.75589033 323.37051561 7.74578572 323.37629417 3.73394585 323.410007 C2.26950827 323.41578614 0.8049403 323.40814573 -0.65933228 323.38541555 C-11.28886309 323.23136071 -16.89987953 325.47821553 -24.85611534 332.40297651 C-26.68938224 333.72139596 -28.5356124 335.02213699 -30.39908409 336.29750776 C-31.31915245 336.93712446 -32.23922081 337.57674116 -33.18717003 338.23574018 C-34.60111046 339.21570967 -34.60111046 339.21570967 -36.04361534 340.21547651 C-37.04682823 340.91197309 -38.05004112 341.60846968 -39.0836544 342.32607222 C-46.63251157 347.56349978 -54.19350054 352.78287816 -61.77408409 357.97426558 C-64.15845035 359.61044186 -66.53849887 361.25281228 -68.91861534 362.89516401 C-70.64772972 364.08534415 -72.37689564 365.27544941 -74.10611534 366.46547651 C-74.91725792 367.0264604 -75.7284005 367.58744429 -76.56412315 368.16542768 C-77.70639366 368.9501042 -77.70639366 368.9501042 -78.87174034 369.75063276 C-79.54495323 370.21477583 -80.21816612 370.6789189 -80.9117794 371.1571269 C-86.54193945 374.76469932 -91.22637602 375.1631353 -97.85611534 374.40297651 C-103.32312035 371.91797424 -105.3357973 368.63030281 -107.85611534 363.40297651 C-108.95090577 360.05023963 -108.94585287 356.9900451 -108.88687706 353.4762187 C-108.86353798 351.68350538 -108.86353798 351.68350538 -108.8397274 349.85457563 C-108.8219323 348.56601667 -108.80413719 347.27745771 -108.78580284 345.94985151 C-108.76694441 342.50949876 -108.7641507 339.06910801 -108.75946426 335.62871122 C-108.75125383 332.03446846 -108.72351682 328.4423939 -108.6539669 324.84877729 C-108.58761281 321.36132075 -108.57555402 317.877306 -108.59922218 314.38934278 C-108.59832162 312.42823413 -108.54126898 310.46740767 -108.48303795 308.50716352 C-108.53913412 301.53810741 -108.53913412 301.53810741 -112.23570824 295.89575911 C-115.02798544 293.86975009 -117.88461356 292.14977208 -120.85611534 290.40297651 C-123.82064382 287.90072765 -126.56419201 285.2207665 -129.29361534 282.46547651 C-130.01806847 281.73530317 -130.74252159 281.00512983 -131.48892784 280.25283003 C-138.5829082 272.92578417 -144.43740859 265.0234606 -149.85611534 256.40297651 C-150.26797081 255.75538374 -150.67982628 255.10779097 -151.10416222 254.44057417 C-168.28081812 227.01221075 -173.22829699 197.25395525 -173.17178917 165.44423628 C-173.16863683 161.74072805 -173.19212983 158.03802675 -173.21744347 154.33461714 C-173.26464743 136.97183566 -172.49207365 119.79981052 -167.10611534 103.15297651 C-166.84862511 102.33345503 -166.59113487 101.51393354 -166.3258419 100.66957808 C-154.70134784 64.70760785 -129.57363878 33.82947951 -95.85611534 16.40297651 C-64.61704866 1.27282803 -34.12212544 -0.06818976 0 0 Z " fill="#2978D0" transform="translate(387.8561153411865,102.59702348709106)"/>
<path d="M0 0 C0.94359375 0.42410156 1.8871875 0.84820313 2.859375 1.28515625 C13.70545993 6.66325637 21.54650348 14.2194125 27 25 C27.598125 26.134375 28.19625 27.26875 28.8125 28.4375 C30.40561795 33.21685386 30.96659641 37.96440948 31 43 C30.505 43.99 30.505 43.99 30 45 C21.42 45 12.84 45 4 45 C3.113125 43.123125 2.22625 41.24625 1.3125 39.3125 C-2.67509791 31.39307477 -7.41607464 27.29705513 -15 23 C-15.89332031 22.44505859 -15.89332031 22.44505859 -16.8046875 21.87890625 C-24.69869955 18.71849217 -35.15068636 20.68339989 -42.69921875 23.859375 C-45.68262011 25.33841269 -48.35083958 26.98159206 -51 29 C-52.2065625 29.88171875 -52.2065625 29.88171875 -53.4375 30.78125 C-61.39236264 37.66899692 -65.3223124 48.68744663 -66.15966797 58.95849609 C-67.00812742 73.98784632 -65.31988886 89.50806331 -55.03125 101.24609375 C-48.68825955 107.32479293 -41.22489569 112.59893019 -32.28515625 113.28515625 C-20.72858015 112.8041211 -11.34597422 110.21986053 -2.87109375 102.16796875 C-0.16716639 99.03502577 1.28834391 95.75247681 3 92 C7.75424852 90.41525049 12.58396685 90.81551912 17.5625 90.8125 C18.62919922 90.80025391 19.69589844 90.78800781 20.79492188 90.77539062 C21.81263672 90.77345703 22.83035156 90.77152344 23.87890625 90.76953125 C24.8129126 90.76542236 25.74691895 90.76131348 26.70922852 90.75708008 C29 91 29 91 31 93 C31.20198148 103.50303674 24.92169026 113.45752171 17.9375 120.875 C2.74381971 134.91106655 -14.72916403 139.08493597 -35.04296875 138.37890625 C-51.49533439 137.37941955 -65.54777919 129.57405294 -77 118 C-77.62390625 117.40960937 -78.2478125 116.81921875 -78.890625 116.2109375 C-92.51734961 102.27730467 -96.25737718 82.41594967 -96.2487793 63.72070312 C-96.014425 45.30955991 -89.5146724 27.72128819 -76.75 14.25 C-57.82328944 -3.77236261 -24.2506582 -11.38079135 0 0 Z " fill="#131415" transform="translate(199,532)"/>
<path d="M0 0 C8.20847321 5.74836699 12.55454511 13.0470965 14.9375 22.75 C16.12989024 30.94483239 16.10094463 39.1745329 16.10546875 47.4375 C16.10868873 48.83089226 16.11205334 50.2242842 16.11555481 51.61767578 C16.12149818 54.51547024 16.12339919 57.41323505 16.12280273 60.31103516 C16.12270024 64.02787376 16.13646231 67.74452506 16.15357494 71.46131897 C16.16466318 74.3282764 16.16672309 77.19518762 16.16619301 80.06216431 C16.16737369 81.43373268 16.17180041 82.80530223 16.17952538 84.17684937 C16.18927996 86.08402049 16.18519477 87.99124741 16.18041992 89.8984375 C16.18184494 90.98302246 16.18326996 92.06760742 16.18473816 93.18505859 C15.9375 95.75 15.9375 95.75 13.9375 97.75 C11.61499023 97.99291992 11.61499023 97.99291992 8.74609375 97.98046875 C7.71935547 97.97853516 6.69261719 97.97660156 5.63476562 97.97460938 C4.55904297 97.96236328 3.48332031 97.95011719 2.375 97.9375 C1.29541016 97.93685547 0.21582031 97.93621094 -0.89648438 97.93554688 C-8.92235402 97.89014598 -8.92235402 97.89014598 -10.0625 96.75 C-10.13429964 95.23071962 -10.14642007 93.70832518 -10.125 92.1875 C-10.11597656 91.36121094 -10.10695313 90.53492188 -10.09765625 89.68359375 C-10.08605469 89.04550781 -10.07445312 88.40742187 -10.0625 87.75 C-10.7225 87.75 -11.3825 87.75 -12.0625 87.75 C-12.5575 89.235 -12.5575 89.235 -13.0625 90.75 C-22.36910531 97.96966958 -31.69401657 99.99313159 -43.1875 100.125 C-44.03489746 100.13901855 -44.88229492 100.15303711 -45.75537109 100.16748047 C-54.74107285 100.09910147 -62.29788428 97.34079927 -68.8828125 90.99609375 C-75.9482774 83.44284571 -77.5674673 77.0076206 -77.48242188 66.75610352 C-77.19634037 58.91361905 -75.24110753 52.86314382 -70.0625 46.9375 C-62.28229208 39.82944827 -51.81121349 37.70257542 -41.59765625 37.5390625 C-40.38529297 37.51070312 -39.17292969 37.48234375 -37.92382812 37.453125 C-35.39532943 37.40112503 -32.86666033 37.35682903 -30.33789062 37.3203125 C-21.29082013 37.10820569 -21.29082013 37.10820569 -13.0625 33.75 C-11.8386108 31.30222161 -12.046136 30.01609459 -12.3125 27.3125 C-12.41304687 26.13880859 -12.41304687 26.13880859 -12.515625 24.94140625 C-13.17376781 22.30413399 -13.92884209 21.40407425 -16.0625 19.75 C-22.86322242 16.30713428 -30.7719728 15.48848797 -38.17578125 17.25390625 C-42.34477966 18.81616476 -44.68767189 21.05582295 -47.0625 24.75 C-47.75048834 26.40797897 -48.42055552 28.07365591 -49.0625 29.75 C-51.79193537 29.80416741 -54.52028564 29.84375225 -57.25 29.875 C-58.40338867 29.90013672 -58.40338867 29.90013672 -59.58007812 29.92578125 C-63.82883884 29.9622513 -67.24651401 29.86916892 -71.0625 27.75 C-72.83735209 24.20029581 -71.89925013 20.52126819 -71.0625 16.75 C-67.5545414 7.39544372 -60.38219007 1.08818863 -51.5 -3.125 C-35.09539825 -10.2661204 -15.42244832 -9.09529004 0 0 Z " fill="#141415" transform="translate(434.0625,569.25)"/>
<path d="M0 0 C1.53333984 -0.00386719 1.53333984 -0.00386719 3.09765625 -0.0078125 C4.16886719 -0.00007812 5.24007813 0.00765625 6.34375 0.015625 C7.95056641 0.00402344 7.95056641 0.00402344 9.58984375 -0.0078125 C10.61207031 -0.00523437 11.63429688 -0.00265625 12.6875 0 C13.62787109 0.00225586 14.56824219 0.00451172 15.53710938 0.00683594 C17.84375 0.265625 17.84375 0.265625 19.84375 2.265625 C20.08425903 4.29043579 20.08425903 4.29043579 20.07080078 6.80712891 C20.07064972 7.74795319 20.07049866 8.68877747 20.07034302 9.65811157 C20.06002045 10.67585663 20.04969788 11.69360168 20.0390625 12.7421875 C20.0362326 13.78257172 20.03340271 14.82295593 20.03048706 15.89486694 C20.01926704 19.22690194 19.99415915 22.55867086 19.96875 25.890625 C19.95872256 28.14582946 19.9495963 30.40103812 19.94140625 32.65625 C19.91932178 38.19279954 19.88582639 43.72919327 19.84375 49.265625 C20.50375 49.265625 21.16375 49.265625 21.84375 49.265625 C22.17632812 48.38970703 22.17632812 48.38970703 22.515625 47.49609375 C24.25227418 44.57954469 26.23101298 43.38102359 29.09375 41.578125 C30.02703125 40.97613281 30.9603125 40.37414062 31.921875 39.75390625 C40.62201239 35.32241916 55.08761556 35.89587247 64.40625 38.390625 C73.43369754 41.71570895 81.02224367 47.51556333 85.28515625 56.203125 C88.37489408 63.38610526 89.96427789 69.29229473 89.98901367 77.13549805 C89.99237228 77.80601196 89.9957309 78.47652588 89.99919128 79.1673584 C90.00864589 81.37070596 90.01064106 83.5739772 90.01171875 85.77734375 C90.01493318 87.31240368 90.01829739 88.8474633 90.02180481 90.38252258 C90.02778088 93.59266878 90.02964608 96.80278809 90.02905273 100.01293945 C90.02895074 104.13235501 90.0426476 108.25159962 90.05982494 112.37097454 C90.07091965 115.53732603 90.07297279 118.70363571 90.07244301 121.87000465 C90.07362523 123.38949998 90.07806051 124.90899632 90.08577538 126.42847252 C90.09553225 128.5470843 90.09271551 130.66531816 90.08666992 132.78393555 C90.08809494 133.99019089 90.08951996 135.19644623 90.09098816 136.43925476 C89.84375 139.265625 89.84375 139.265625 87.84375 141.265625 C84.02920714 141.71983337 80.18222486 141.58967276 76.34375 141.578125 C74.73693359 141.60229492 74.73693359 141.60229492 73.09765625 141.62695312 C72.07542969 141.62759766 71.05320312 141.62824219 70 141.62890625 C68.58944336 141.63337769 68.58944336 141.63337769 67.15039062 141.63793945 C66.38919922 141.51507568 65.62800781 141.39221191 64.84375 141.265625 C62.57428258 137.86142387 62.58935419 136.64844747 62.57250977 132.65185547 C62.55722984 130.92393265 62.55722984 130.92393265 62.54164124 129.16110229 C62.53950119 127.91426666 62.53736115 126.66743103 62.53515625 125.3828125 C62.51643342 123.4205703 62.49769348 121.45832809 62.47797298 119.49609566 C62.43267629 114.6599304 62.40910995 109.82362452 62.38745117 104.98730469 C62.37457879 102.27592593 62.3538043 99.5648039 62.32518005 96.85354614 C62.29906774 94.30373792 62.28504448 91.75376882 62.2848053 89.2038269 C62.1923492 81.08814338 61.75707163 73.88759243 56.53125 67.390625 C50.67018195 62.75629212 46.22263665 61.71201395 38.8203125 61.9140625 C33.26757171 62.56989803 29.54970032 64.65188821 25.53125 68.453125 C20.59532709 76.67966318 20.39143897 84.81939817 20.3671875 94.234375 C20.34339085 96.24547684 20.3195899 98.25657864 20.2955265 100.26767731 C20.26572492 103.05808958 20.24915545 105.84852126 20.23248291 108.63903809 C20.20072376 113.55704875 20.1499656 118.47488855 20.09609985 123.3927002 C20.06880827 126.00681996 20.04748548 128.62100986 20.03256226 131.23522949 C20.01716904 132.99341003 20.01716904 132.99341003 20.00146484 134.78710938 C19.99496918 135.82363647 19.98847351 136.86016357 19.98178101 137.92810059 C19.84375 140.265625 19.84375 140.265625 18.84375 141.265625 C14.87099185 141.51819377 10.88608825 141.45084951 6.90625 141.453125 C5.78283203 141.46537109 4.65941406 141.47761719 3.50195312 141.49023438 C2.43009766 141.49216797 1.35824219 141.49410156 0.25390625 141.49609375 C-0.73472412 141.50020264 -1.72335449 141.50431152 -2.74194336 141.50854492 C-5.15625 141.265625 -5.15625 141.265625 -7.15625 139.265625 C-7.40793228 136.88553619 -7.40793228 136.88553619 -7.41021729 133.83752441 C-7.41585693 132.6849263 -7.42149658 131.53232819 -7.42730713 130.34480286 C-7.42325867 129.07408432 -7.41921021 127.80336578 -7.41503906 126.49414062 C-7.41774801 125.1473522 -7.42130841 123.80056525 -7.42565918 122.45378113 C-7.43479691 118.79062218 -7.43123328 115.12757557 -7.42490101 111.4644146 C-7.41984815 107.63630743 -7.42453047 103.80821007 -7.42767334 99.98010254 C-7.43131508 93.55068225 -7.42650847 87.12130786 -7.41699219 80.69189453 C-7.40610722 73.25170351 -7.40963265 65.8116221 -7.420645 58.37143373 C-7.42971199 51.99093832 -7.43100605 45.61047595 -7.42576766 39.22997618 C-7.42264471 35.41589784 -7.42224749 31.60187107 -7.42884064 27.78779602 C-7.43460495 24.2025621 -7.43063414 20.61746991 -7.41905212 17.03225136 C-7.41513268 15.08365195 -7.42109898 13.1350406 -7.42730713 11.18644714 C-7.42166748 10.03384903 -7.41602783 8.88125092 -7.41021729 7.69372559 C-7.40946323 6.6878817 -7.40870918 5.68203781 -7.40793228 4.64571381 C-6.90038064 -0.15405979 -4.13200352 0.00991228 0 0 Z " fill="#111112" transform="translate(252.15625,525.734375)"/>
<path d="M0 0 C1.00675781 -0.020625 2.01351562 -0.04125 3.05078125 -0.0625 C4.02144531 -0.06765625 4.99210938 -0.0728125 5.9921875 -0.078125 C7.32419189 -0.09214355 7.32419189 -0.09214355 8.68310547 -0.10644531 C11.68607518 0.3319006 12.87199655 1.24037304 15.125 3.25 C16.16633606 5.26048279 16.16633606 5.26048279 16.93676758 7.58764648 C17.23420364 8.4638414 17.53163971 9.34003632 17.83808899 10.24278259 C18.29915291 11.66754662 18.29915291 11.66754662 18.76953125 13.12109375 C19.26884407 14.60839745 19.26884407 14.60839745 19.77824402 16.12574768 C20.84396297 19.30894852 21.89117299 22.49787859 22.9375 25.6875 C23.6295977 27.76930008 24.32294496 29.85068518 25.01757812 31.93164062 C26.04753531 35.01786921 27.07649359 38.1043865 28.10012817 41.19271851 C31.32742365 50.91899715 34.70449076 60.59023477 38.125 70.25 C41.26097101 62.75534872 43.87102859 55.15256509 46.34765625 47.41796875 C47.14112735 44.96674874 47.93475163 42.51557831 48.72851562 40.06445312 C49.96397285 36.23584192 51.19762188 32.40666872 52.42797852 28.57641602 C53.62387526 24.85482313 54.82961787 21.13644973 56.03515625 17.41796875 C56.58370018 15.69914742 56.58370018 15.69914742 57.14332581 13.94560242 C57.49056198 12.87711563 57.83779816 11.80862885 58.19555664 10.70776367 C58.49659805 9.77195969 58.79763947 8.8361557 59.10780334 7.87199402 C60.19051114 5.0811341 61.41389113 2.70685254 63.125 0.25 C65.52929688 -0.34936523 65.52929688 -0.34936523 68.34375 -0.30859375 C69.86548828 -0.29795898 69.86548828 -0.29795898 71.41796875 -0.28710938 C73.00544922 -0.23780273 73.00544922 -0.23780273 74.625 -0.1875 C76.21248047 -0.17879883 76.21248047 -0.17879883 77.83203125 -0.16992188 C85.68214337 -0.04523776 85.68214337 -0.04523776 89.125 2.25 C88.57529992 6.90599891 87.67464179 10.98344233 86.01464844 15.36425781 C85.35629753 17.11775543 85.35629753 17.11775543 84.68464661 18.90667725 C84.20133811 20.1722039 83.71791087 21.43768521 83.234375 22.703125 C82.73219488 24.0333041 82.230678 25.36373375 81.7297821 26.69439697 C80.39479886 30.23584482 79.0513626 33.77402779 77.7061882 37.31161499 C76.31881465 40.96434667 74.93894622 44.61990907 73.55883789 48.27539062 C71.91938804 52.61702658 70.27963638 56.95854341 68.63661194 61.29882812 C65.68860646 69.08878188 62.761618 76.88583184 59.88671875 84.703125 C59.58945892 85.5105011 59.2921991 86.3178772 58.9859314 87.14971924 C57.93341404 90.0111133 56.88157869 92.87270869 55.83947754 95.73791504 C53.24743826 102.86294542 50.49116057 109.88773927 47.46875 116.83984375 C47.18047836 117.50483887 46.89220673 118.16983398 46.59519958 118.85498047 C41.53763124 130.31305471 35.29231181 138.44194793 23.4375 143.125 C17.3598868 145.32313076 11.96739385 146.42125807 5.5 146.5625 C3.81003906 146.61857422 3.81003906 146.61857422 2.0859375 146.67578125 C-0.875 146.25 -0.875 146.25 -2.75390625 144.765625 C-4.40192368 141.06763467 -4.27191692 137.68886199 -4.1875 133.6875 C-4.19233398 132.53604492 -4.19233398 132.53604492 -4.19726562 131.36132812 C-4.16013936 127.49007136 -4.06584972 125.53627458 -1.875 122.25 C0.953125 121.84375 0.953125 121.84375 4.375 121.75 C11.21959461 121.43610934 11.21959461 121.43610934 17.125 118.25 C21.01847597 113.36166109 21.73512603 108.11618653 21.63427734 102.01391602 C20.49583144 93.60000396 16.86855276 85.78124957 13.75 77.9375 C12.98893456 75.97673054 12.2300215 74.01512443 11.47314453 72.05273438 C9.46427778 66.85670664 7.43339256 61.66960434 5.39575195 56.48480225 C1.98036139 47.79064834 -1.41208163 39.08771923 -4.78399658 30.37661743 C-5.98581428 27.28647467 -7.20390264 24.20309751 -8.42333984 21.11987305 C-9.1604794 19.22600105 -9.89700305 17.33188917 -10.6328125 15.4375 C-10.97777771 14.57804276 -11.32274292 13.71858551 -11.67816162 12.83308411 C-14.56668952 5.31404703 -14.56668952 5.31404703 -12.875 1.25 C-9.0106088 -0.6821956 -4.25063211 0.02160423 0 0 Z " fill="#121314" transform="translate(682.875,563.75)"/>
<path d="M0 0 C1.01900391 -0.01611328 2.03800781 -0.03222656 3.08789062 -0.04882812 C4.06048828 -0.04947266 5.03308594 -0.05011719 6.03515625 -0.05078125 C6.92726807 -0.05376221 7.81937988 -0.05674316 8.73852539 -0.05981445 C9.82701782 0.1244812 9.82701782 0.1244812 10.9375 0.3125 C13.17163013 3.66369519 13.17597762 4.7302755 13.1328125 8.63671875 C13.12636719 9.66474609 13.11992187 10.69277344 13.11328125 11.75195312 C13.09652344 12.82380859 13.07976562 13.89566406 13.0625 15 C13.05347656 16.08345703 13.04445313 17.16691406 13.03515625 18.28320312 C13.0115734 20.9598571 12.97866126 23.63606797 12.9375 26.3125 C13.62376465 26.30202637 14.3100293 26.29155273 15.01708984 26.28076172 C18.11552289 26.23928126 21.21389761 26.21319931 24.3125 26.1875 C25.39273438 26.17074219 26.47296875 26.15398438 27.5859375 26.13671875 C28.6171875 26.13027344 29.6484375 26.12382813 30.7109375 26.1171875 C32.14058838 26.10147705 32.14058838 26.10147705 33.59912109 26.08544922 C35.9375 26.3125 35.9375 26.3125 37.9375 28.3125 C38.18041992 30.25195312 38.18041992 30.25195312 38.16796875 32.59375 C38.16603516 33.43550781 38.16410156 34.27726563 38.16210938 35.14453125 C38.14986328 36.02496094 38.13761719 36.90539062 38.125 37.8125 C38.1240332 39.13314453 38.1240332 39.13314453 38.12304688 40.48046875 C38.07790057 47.03169885 38.07790057 47.03169885 36.9375 49.3125 C29.0175 49.3125 21.0975 49.3125 12.9375 49.3125 C12.98860911 56.16367682 13.051633 63.01260568 13.14501953 69.86303711 C13.17318735 72.19173892 13.19442264 74.5205356 13.20849609 76.84936523 C13.22998289 80.20345479 13.27666509 83.55640877 13.328125 86.91015625 C13.32935364 87.94584244 13.33058228 88.98152863 13.33184814 90.04859924 C13.45793008 96.31789167 14.20176248 100.21153992 17.9375 105.3125 C22.71792954 108.23432451 28.40158736 107.74031518 33.85546875 107.96875 C36.9375 108.3125 36.9375 108.3125 38.9375 110.3125 C39.18964344 113.17110298 39.3077778 115.8907106 39.3125 118.75 C39.33699219 119.52666016 39.36148438 120.30332031 39.38671875 121.10351562 C39.41584823 126.74006907 39.41584823 126.74006907 37.2890625 129.28515625 C28.29404004 133.21487536 15.11285299 132.58941178 5.9375 129.3125 C-1.15446277 126.40234976 -6.98142338 121.85884236 -11.0625 115.3125 C-14.20740535 107.61792997 -14.46394407 100.3058625 -14.35546875 92.0859375 C-14.35122391 90.85710846 -14.34697906 89.62827942 -14.34260559 88.36221313 C-14.3259279 84.4704111 -14.28829504 80.57914327 -14.25 76.6875 C-14.23493911 74.03516377 -14.22125317 71.38281936 -14.20898438 68.73046875 C-14.1760601 62.25763287 -14.12597008 55.78510462 -14.0625 49.3125 C-15.26648438 49.34730469 -16.47046875 49.38210938 -17.7109375 49.41796875 C-19.28644442 49.4461028 -20.86196638 49.47340337 -22.4375 49.5 C-23.2315625 49.52513672 -24.025625 49.55027344 -24.84375 49.57617188 C-26.91836148 49.60254405 -28.99350865 49.46736462 -31.0625 49.3125 C-33.10125926 46.2543611 -33.31740139 45.60189991 -33.328125 42.15234375 C-33.33070313 41.35892578 -33.33328125 40.56550781 -33.3359375 39.74804688 C-33.32820313 38.92369141 -33.32046875 38.09933594 -33.3125 37.25 C-33.32023437 36.42177734 -33.32796875 35.59355469 -33.3359375 34.74023438 C-33.33335937 33.94810547 -33.33078125 33.15597656 -33.328125 32.33984375 C-33.32586914 31.61531006 -33.32361328 30.89077637 -33.32128906 30.14428711 C-33.0625 28.3125 -33.0625 28.3125 -31.0625 26.3125 C-28.31764407 26.16742305 -25.67769457 26.12597577 -22.9375 26.1875 C-22.18339844 26.19652344 -21.42929687 26.20554687 -20.65234375 26.21484375 C-18.78892746 26.2384313 -16.92567407 26.27430281 -15.0625 26.3125 C-15.07410156 25.50167969 -15.08570313 24.69085937 -15.09765625 23.85546875 C-15.14318097 18.26893531 -15.11977077 12.70114322 -14.75 7.125 C-14.69199219 6.24457031 -14.63398438 5.36414063 -14.57421875 4.45703125 C-13.10374004 -1.7055093 -4.90656335 -0.01557639 0 0 Z " fill="#121314" transform="translate(494.0625,537.6875)"/>
<path d="M0 0 C3.95819611 -0.08678303 7.91614934 -0.14031733 11.875 -0.1875 C13.00292969 -0.21263672 14.13085938 -0.23777344 15.29296875 -0.26367188 C16.90751953 -0.27817383 16.90751953 -0.27817383 18.5546875 -0.29296875 C20.04718018 -0.31653442 20.04718018 -0.31653442 21.56982422 -0.34057617 C22.37178223 -0.22818604 23.17374023 -0.1157959 24 0 C26.23413013 3.35119519 26.23847762 4.4177755 26.1953125 8.32421875 C26.18886719 9.35224609 26.18242188 10.38027344 26.17578125 11.43945312 C26.15902344 12.51130859 26.14226563 13.58316406 26.125 14.6875 C26.11597656 15.77095703 26.10695313 16.85441406 26.09765625 17.97070312 C26.0740734 20.6473571 26.04116126 23.32356797 26 26 C26.65073486 25.98428955 27.30146973 25.9685791 27.97192383 25.95239258 C30.91869424 25.89005351 33.86532598 25.85101316 36.8125 25.8125 C37.83666016 25.78736328 38.86082031 25.76222656 39.91601562 25.73632812 C41.39038086 25.72182617 41.39038086 25.72182617 42.89453125 25.70703125 C43.80050049 25.6913208 44.70646973 25.67561035 45.63989258 25.65942383 C48 26 48 26 49.79638672 27.27416992 C51.91477422 30.31167119 51.3869257 33.93352053 51.3125 37.5 C51.31572266 38.27214844 51.31894531 39.04429687 51.32226562 39.83984375 C51.28523859 43.72431666 51.19788099 45.70317851 49 49 C46.66162109 49.34057617 46.66162109 49.34057617 43.7734375 49.29296875 C42.7421875 49.28330078 41.7109375 49.27363281 40.6484375 49.26367188 C39.56820312 49.23853516 38.48796875 49.21339844 37.375 49.1875 C36.28703125 49.17396484 35.1990625 49.16042969 34.078125 49.14648438 C31.38492591 49.11104754 28.69270626 49.06164331 26 49 C26.06709538 55.86883903 26.15693982 62.73711316 26.26245117 69.60546875 C26.29566333 71.94101237 26.32370676 74.27663553 26.34643555 76.61230469 C26.38004901 79.97365145 26.43237003 83.33427169 26.48828125 86.6953125 C26.49786613 88.25658371 26.49786613 88.25658371 26.50764465 89.84939575 C26.61741457 95.28718145 26.88741836 99.33183742 30 104 C33.91840793 107.26533994 37.8254291 107.49215994 42.75 107.625 C49.89408023 107.89408023 49.89408023 107.89408023 51 109 C51.15357265 111.97104013 51.23168121 114.90277553 51.25 117.875 C51.270625 118.70386719 51.29125 119.53273438 51.3125 120.38671875 C51.32023438 121.58361328 51.32023438 121.58361328 51.328125 122.8046875 C51.3374707 123.53671387 51.34681641 124.26874023 51.35644531 125.02294922 C50.89710856 127.57069511 50.02259946 128.42972951 48 130 C36.87974034 132.76399518 23.76425716 132.06578556 13.60546875 126.74609375 C6.71162305 122.55033692 1.5960388 117.21532495 -0.58332825 109.30561829 C-1.51608782 104.14427122 -1.2390813 98.85505024 -1.1953125 93.62890625 C-1.1924826 92.35144028 -1.18965271 91.0739743 -1.18673706 89.75779724 C-1.17747007 86.38266422 -1.15954066 83.00780796 -1.1373291 79.63275146 C-1.11676863 76.18032201 -1.10771366 72.72786382 -1.09765625 69.27539062 C-1.07564914 62.51685137 -1.04221125 55.75844164 -1 49 C-2.20398438 49.02320313 -3.40796875 49.04640625 -4.6484375 49.0703125 C-6.22395215 49.08906863 -7.79947348 49.10726899 -9.375 49.125 C-10.1690625 49.14175781 -10.963125 49.15851562 -11.78125 49.17578125 C-13.85492015 49.19335473 -15.92883241 49.10335168 -18 49 C-20.40829792 46.59170208 -20.25602579 46.00716444 -20.265625 42.71875 C-20.26820313 41.87699219 -20.27078125 41.03523437 -20.2734375 40.16796875 C-20.26183594 38.84732422 -20.26183594 38.84732422 -20.25 37.5 C-20.25773438 36.61957031 -20.26546875 35.73914063 -20.2734375 34.83203125 C-20.27085937 33.99027344 -20.26828125 33.14851562 -20.265625 32.28125 C-20.26336914 31.50845703 -20.26111328 30.73566406 -20.25878906 29.93945312 C-20 28 -20 28 -18 26 C-15.25514407 25.85492305 -12.61519457 25.81347577 -9.875 25.875 C-9.12089844 25.88402344 -8.36679687 25.89304687 -7.58984375 25.90234375 C-5.72642746 25.9259313 -3.86317407 25.96180281 -2 26 C-1.97494385 25.28344238 -1.9498877 24.56688477 -1.92407227 23.82861328 C-1.80830249 20.59388486 -1.68549031 17.35946159 -1.5625 14.125 C-1.52318359 12.99707031 -1.48386719 11.86914062 -1.44335938 10.70703125 C-1.40146484 9.63066406 -1.35957031 8.55429687 -1.31640625 7.4453125 C-1.27974854 6.45031738 -1.24309082 5.45532227 -1.20532227 4.43017578 C-1 2 -1 2 0 0 Z " fill="#121314" transform="translate(562,538)"/>
<path d="M0 0 C1.06734375 -0.01224609 2.1346875 -0.02449219 3.234375 -0.03710938 C4.25789062 -0.03904297 5.28140625 -0.04097656 6.3359375 -0.04296875 C7.74818604 -0.04913208 7.74818604 -0.04913208 9.18896484 -0.05541992 C11.625 0.1875 11.625 0.1875 14.625 2.1875 C14.99973011 4.56758881 14.99973011 4.56758881 14.9992218 7.61560059 C15.00974327 9.34449776 15.00974327 9.34449776 15.02047729 11.10832214 C15.01283356 12.37904068 15.00518982 13.64975922 14.99731445 14.95898438 C14.99974144 16.30577374 15.00345985 17.6525613 15.00837708 18.99934387 C15.01780262 22.66256177 15.00834691 26.32551327 14.99504495 29.9887104 C14.98375086 33.81681497 14.98783637 37.64490603 14.98979187 41.47302246 C14.9906755 47.90246955 14.9795802 54.33181134 14.96118164 60.76123047 C14.94001293 68.2014275 14.93650371 75.64147022 14.9427436 83.08169127 C14.94843246 90.23004417 14.94279726 97.37834257 14.93157005 104.52668762 C14.92691771 107.57291163 14.92605295 110.61910237 14.9281559 113.66532898 C14.93003548 117.25057509 14.92196055 120.83566349 14.9060955 124.42087364 C14.8998084 126.36946494 14.9033665 128.31808012 14.90716553 130.26667786 C14.89653831 131.99557503 14.89653831 131.99557503 14.88569641 133.75939941 C14.88364354 134.7652433 14.88159067 135.77108719 14.87947559 136.80741119 C14.625 139.1875 14.625 139.1875 12.625 141.1875 C10.21069336 141.43041992 10.21069336 141.43041992 7.21484375 141.41796875 C6.14298828 141.41603516 5.07113281 141.41410156 3.96679688 141.41210938 C2.84337891 141.39986328 1.71996094 141.38761719 0.5625 141.375 C-1.12842773 141.3740332 -1.12842773 141.3740332 -2.85351562 141.37304688 C-11.23486683 141.32763317 -11.23486683 141.32763317 -12.375 140.1875 C-12.4735732 138.39287232 -12.50132112 136.59432975 -12.50198364 134.79699707 C-12.50480347 133.62750015 -12.50762329 132.45800323 -12.51052856 131.25306702 C-12.50850433 129.95848068 -12.5064801 128.66389435 -12.50439453 127.33007812 C-12.50574855 125.96211195 -12.50752849 124.59414614 -12.50970459 123.22618103 C-12.51427881 119.50107626 -12.51248941 115.77599906 -12.5093255 112.05089378 C-12.50680184 108.16092222 -12.50913946 104.27095309 -12.51071167 100.38098145 C-12.51253335 93.84724502 -12.5101271 87.31351987 -12.50537109 80.77978516 C-12.49992848 73.21522317 -12.50169113 65.65068814 -12.5071975 58.0861268 C-12.51172868 51.60291516 -12.51237915 45.11971165 -12.50975883 38.63649893 C-12.50819608 34.75929415 -12.50800222 30.88210205 -12.51129532 27.00489807 C-12.51417411 23.36062413 -12.5121982 19.71638509 -12.50640106 16.07211494 C-12.50443788 14.08872145 -12.50742731 12.10532502 -12.51052856 10.12193298 C-12.50770874 8.95243607 -12.50488892 7.78293915 -12.50198364 6.57800293 C-12.50160662 5.55518974 -12.50122959 4.53237656 -12.50084114 3.47856903 C-12.19174895 -2.14877615 -4.30214386 0.00257922 0 0 Z " fill="#151616" transform="translate(641.375,525.8125)"/>
<path d="M0 0 C5.88733049 4.21687685 10.20835391 9.62491702 12.2578125 16.6171875 C13.38838331 24.84209015 11.60752951 32.9310549 6.75 39.7265625 C0.90415755 46.08901429 -5.60599347 48.79684335 -14.1796875 49.1796875 C-21.47854541 48.9238864 -27.1575176 46.88288254 -32.5859375 41.9375 C-37.80813608 36.17772215 -40.29849504 30.58998226 -40.1796875 22.7421875 C-40.17066406 22.03328369 -40.16164063 21.32437988 -40.15234375 20.59399414 C-39.88499413 12.52801892 -37.73705518 8.27814411 -31.9921875 2.8046875 C-22.54690779 -4.80015168 -10.71568284 -6.09863621 0 0 Z " fill="#F2EFE6" transform="translate(359.7421875,242.3828125)"/>
<path d="M0 0 C5.58928621 5.02660639 9.59963326 9.84270355 10.3359375 17.48828125 C10.41094126 24.83114931 10.41677226 30.82883039 6 37 C5.443125 37.886875 4.88625 38.77375 4.3125 39.6875 C-1.09533762 45.09533762 -7.95945138 48.11726954 -15.5625 48.375 C-22.84758962 48.29571849 -28.30325995 46.2107462 -33.8125 41.42578125 C-38.87165091 35.9998419 -42.14923793 29.52203995 -42.5 22.0625 C-42.14441077 14.67542049 -39.705287 8.40740526 -34.5625 3.0625 C-24.94934634 -5.66739381 -11.21282764 -7.07386442 0 0 Z " fill="#F2EFE7" transform="translate(454,243)"/>
<path d="M0 0 C5.23208197 3.81850193 9.28531967 8.38593584 11.2265625 14.625 C12.21459238 23.72527517 12.01247274 32.12578624 6.2265625 39.625 C0.39978549 45.57844608 -6.99800934 48.61634648 -15.2734375 49.0625 C-22.63342723 48.76758752 -28.90755195 45.22907314 -34.26953125 40.33984375 C-39.33116502 34.56826655 -41.10719815 27.7537375 -40.9765625 20.2421875 C-40.32901323 11.89876423 -35.9067398 6.11155689 -29.7734375 0.625 C-20.9434443 -5.60106326 -9.1841792 -5.2651972 0 0 Z " fill="#F2EFE6" transform="translate(545.7734375,242.375)"/>
<path d="M0 0 C0.38020598 6.97044304 -0.17051811 13.3059542 -4.546875 19.01953125 C-8.84399992 23.53531518 -13.0789786 26.66142707 -19.4375 27.3984375 C-20.613125 27.39070312 -21.78875 27.38296875 -23 27.375 C-24.175625 27.38273438 -25.35125 27.39046875 -26.5625 27.3984375 C-31.25130756 26.85496208 -34.67973802 25.45228818 -37.875 21.9375 C-39.5424163 17.58369076 -39.65177408 13.60031238 -39 9 C-37.1119685 5.14184867 -35.02704151 3.81426818 -31.1171875 2.4140625 C-25.3246659 0.56300073 -19.60228324 0.44100603 -13.5625 0.3125 C-12.47517578 0.27833984 -11.38785156 0.24417969 -10.26757812 0.20898438 C-3.41374362 0 -3.41374362 0 0 0 Z " fill="#EFECE4" transform="translate(423,622)"/>
<path d="M0 0 C0.33 0.66 0.66 1.32 1 2 C3.02463255 2.65213292 3.02463255 2.65213292 5 3 C3.68 3 2.36 3 1 3 C1 47.55 1 92.1 1 138 C0.01 138.33 -0.98 138.66 -2 139 C-2.04667236 121.17197024 -2.08196542 103.34395628 -2.10362434 85.51587868 C-2.11394721 77.23842962 -2.12802676 68.96101848 -2.15087891 60.68359375 C-2.17078195 53.47095953 -2.18370908 46.25835276 -2.18817699 39.04569185 C-2.19078962 35.22486053 -2.19695125 31.40410775 -2.21146011 27.58330154 C-2.22499536 23.98990937 -2.22923092 20.39662837 -2.22621536 16.80321312 C-2.22703132 14.84980734 -2.23781413 12.89641377 -2.24884033 10.94303894 C-2.246091 9.78755051 -2.24334167 8.63206207 -2.24050903 7.44155884 C-2.24235262 6.43311731 -2.24419621 5.42467579 -2.24609566 4.38567543 C-2 2 -2 2 0 0 Z " fill="#383837" transform="translate(247,526)"/>
<path d="M0 0 C5.94 0 11.88 0 18 0 C18 20.46 18 40.92 18 62 C17.67 62 17.34 62 17 62 C16.17333369 58.39589047 15.87798156 55.07801993 15.88647461 51.38354492 C15.88655014 50.28278122 15.88662567 49.18201752 15.88670349 48.04789734 C15.89186478 46.8706459 15.89702606 45.69339447 15.90234375 44.48046875 C15.9037587 43.26676102 15.90517365 42.05305328 15.90663147 40.80256653 C15.91222335 36.93085248 15.92477442 33.05919653 15.9375 29.1875 C15.94251605 26.56054771 15.94707877 23.93359451 15.95117188 21.30664062 C15.96219013 14.87107141 15.97944925 8.43554555 16 2 C11.05 2 6.1 2 1 2 C0.67 1.34 0.34 0.68 0 0 Z " fill="#DAD9D5" transform="translate(543,587)"/>
<path d="M0 0 C5.61 0 11.22 0 17 0 C17 18.48 17 36.96 17 56 C16.67 56 16.34 56 16 56 C15.2283821 52.58200238 14.87742734 49.4356185 14.88647461 45.93432617 C14.88655014 44.95368698 14.88662567 43.97304779 14.88670349 42.96269226 C14.89186478 41.9166835 14.89702606 40.87067474 14.90234375 39.79296875 C14.9037587 38.71243729 14.90517365 37.63190582 14.90663147 36.51863098 C14.9122192 33.07489224 14.9247695 29.63121902 14.9375 26.1875 C14.94251658 23.84961032 14.94707921 21.51171961 14.95117188 19.17382812 C14.96218462 13.44919647 14.97891059 7.72460292 15 2 C14.08476562 2.02320313 13.16953125 2.04640625 12.2265625 2.0703125 C10.44378906 2.09738281 10.44378906 2.09738281 8.625 2.125 C6.84996094 2.15980469 6.84996094 2.15980469 5.0390625 2.1953125 C2 2 2 2 0 0 Z " fill="#FCFBF8" transform="translate(463,587)"/>
<path d="M0 0 C0.98291016 0.00644531 1.96582031 0.01289062 2.97851562 0.01953125 C4.00267578 0.03628906 5.02683594 0.05304687 6.08203125 0.0703125 C7.11779297 0.07933594 8.15355469 0.08835937 9.22070312 0.09765625 C11.7788781 0.1212339 14.33658873 0.1541422 16.89453125 0.1953125 C17.22453125 1.1853125 17.55453125 2.1753125 17.89453125 3.1953125 C10.30453125 3.1953125 2.71453125 3.1953125 -5.10546875 3.1953125 C-4.77546875 5.1753125 -4.44546875 7.1553125 -4.10546875 9.1953125 C-5.09546875 9.1953125 -6.08546875 9.1953125 -7.10546875 9.1953125 C-7.43546875 6.8853125 -7.76546875 4.5753125 -8.10546875 2.1953125 C-4.80258539 -0.00660974 -3.83084148 -0.04428718 0 0 Z " fill="#212121" transform="translate(677.10546875,563.8046875)"/>
<path d="M0 0 C1.61358398 -0.01836914 1.61358398 -0.01836914 3.25976562 -0.03710938 C4.28650391 -0.03904297 5.31324219 -0.04097656 6.37109375 -0.04296875 C7.79119751 -0.04913208 7.79119751 -0.04913208 9.23999023 -0.05541992 C11.5625 0.1875 11.5625 0.1875 13.5625 2.1875 C12.9025 3.5075 12.2425 4.8275 11.5625 6.1875 C11.5625 5.1975 11.5625 4.2075 11.5625 3.1875 C10.57854248 3.20321045 10.57854248 3.20321045 9.57470703 3.21923828 C6.61234342 3.26072503 3.65004084 3.28680262 0.6875 3.3125 C-0.34503906 3.32925781 -1.37757813 3.34601562 -2.44140625 3.36328125 C-3.42753906 3.36972656 -4.41367187 3.37617187 -5.4296875 3.3828125 C-6.79649658 3.39852295 -6.79649658 3.39852295 -8.19091797 3.41455078 C-10.4375 3.1875 -10.4375 3.1875 -12.4375 1.1875 C-9.96151267 -1.28848733 -3.32889842 0.0019874 0 0 Z " fill="#292929" transform="translate(757.4375,563.8125)"/>
<path d="M0 0 C0.33 0 0.66 0 1 0 C1 22.11 1 44.22 1 67 C1.66 67 2.32 67 3 67 C2.67 67.99 2.34 68.98 2 70 C1.34 69.67 0.68 69.34 0 69 C0 46.23 0 23.46 0 0 Z " fill="#1C1D1E" transform="translate(339,596)"/>
<path d="M0 0 C3.45826342 -0.05789006 6.91640293 -0.09355821 10.375 -0.125 C11.35984375 -0.14175781 12.3446875 -0.15851562 13.359375 -0.17578125 C14.77089844 -0.18544922 14.77089844 -0.18544922 16.2109375 -0.1953125 C17.51490479 -0.21102295 17.51490479 -0.21102295 18.84521484 -0.22705078 C21 0 21 0 23 2 C23.13525391 3.87939453 23.13525391 3.87939453 22.9765625 6.1328125 C22.925 6.93847656 22.8734375 7.74414062 22.8203125 8.57421875 C22.75585938 9.41597656 22.69140625 10.25773438 22.625 11.125 C22.56828125 11.97449219 22.5115625 12.82398438 22.453125 13.69921875 C22.31149023 15.8001345 22.15695674 17.90017334 22 20 C21.67 20 21.34 20 21 20 C21 14.39 21 8.78 21 3 C13.74 3 6.48 3 -1 3 C-0.67 2.01 -0.34 1.02 0 0 Z " fill="#272728" transform="translate(589,564)"/>
<path d="M0 0 C3.64581687 -0.02887512 7.29160463 -0.04675585 10.9375 -0.0625 C12.49887695 -0.07506836 12.49887695 -0.07506836 14.09179688 -0.08789062 C15.08115234 -0.09111328 16.07050781 -0.09433594 17.08984375 -0.09765625 C18.46450806 -0.10551147 18.46450806 -0.10551147 19.86694336 -0.11352539 C22 0 22 0 23 1 C23.26465535 3.98472422 23.46916745 6.94689002 23.625 9.9375 C23.70234375 11.19336914 23.70234375 11.19336914 23.78125 12.47460938 C23.82507813 13.27576172 23.86890625 14.07691406 23.9140625 14.90234375 C23.9548291 15.63960693 23.9955957 16.37687012 24.03759766 17.13647461 C24 19 24 19 23 21 C15.08 21 7.16 21 -1 21 C-1 20.67 -1 20.34 -1 20 C6.26 19.67 13.52 19.34 21 19 C21 13.39 21 7.78 21 2 C14.07 1.67 7.14 1.34 0 1 C0 0.67 0 0.34 0 0 Z " fill="#333333" transform="translate(508,566)"/>
<path d="M0 0 C0.66 0.33 1.32 0.66 2 1 C2.10787818 3.77186988 2.18723327 6.53955537 2.25 9.3125 C2.30027344 10.49102539 2.30027344 10.49102539 2.3515625 11.69335938 C2.45047515 17.50447734 2.45047515 17.50447734 0.125 20.0625 C-2 21 -2 21 -4.25 20.6875 C-4.8275 20.460625 -5.405 20.23375 -6 20 C-5.01 20 -4.02 20 -3 20 C-3 19.01 -3 18.02 -3 17 C-2.34 17 -1.68 17 -1 17 C-1.01160156 15.85660156 -1.02320313 14.71320312 -1.03515625 13.53515625 C-1.04453288 12.04427246 -1.05363321 10.55338691 -1.0625 9.0625 C-1.07087891 8.30775391 -1.07925781 7.55300781 -1.08789062 6.77539062 C-1.09652441 4.85005687 -1.05224333 2.92464419 -1 1 C-0.67 0.67 -0.34 0.34 0 0 Z " fill="#2E2E2D" transform="translate(531,647)"/>
<path d="M0 0 C0.33 0 0.66 0 1 0 C1.19582583 4.31216481 1.38027074 8.6247409 1.5625 12.9375 C1.61857422 14.16919922 1.67464844 15.40089844 1.73242188 16.66992188 C1.78076172 17.83974609 1.82910156 19.00957031 1.87890625 20.21484375 C1.9260376 21.29886475 1.97316895 22.38288574 2.02172852 23.49975586 C2 26 2 26 1 27 C-0.78071246 27.08726223 -2.5648314 27.10699041 -4.34765625 27.09765625 C-5.42724609 27.09443359 -6.50683594 27.09121094 -7.61914062 27.08789062 C-8.75544922 27.07951172 -9.89175781 27.07113281 -11.0625 27.0625 C-12.20267578 27.05798828 -13.34285156 27.05347656 -14.51757812 27.04882812 C-17.34510351 27.03699747 -20.1725264 27.0205141 -23 27 C-23 26.67 -23 26.34 -23 26 C-16.73 26 -10.46 26 -4 26 C-4 25.34 -4 24.68 -4 24 C-3.01 23.67 -2.02 23.34 -1 23 C-0.67 15.41 -0.34 7.82 0 0 Z " fill="#2C2C2C" transform="translate(270,640)"/>
<path d="M0 0 C0.33 0 0.66 0 1 0 C1.02529951 6.22964615 1.04284549 12.45927912 1.05493164 18.68896484 C1.05996872 20.80941259 1.06679859 22.92985685 1.07543945 25.05029297 C1.08753234 28.09343322 1.09323447 31.13652766 1.09765625 34.1796875 C1.10281754 35.13181122 1.10797882 36.08393494 1.11329651 37.06491089 C1.11337204 37.94567291 1.11344757 38.82643494 1.11352539 39.73388672 C1.115746 40.51110077 1.11796661 41.28831482 1.12025452 42.08908081 C1 44 1 44 0 46 C-0.66 46 -1.32 46 -2 46 C-2 43.03 -2 40.06 -2 37 C-1.67 37 -1.34 37 -1 37 C-0.67 24.79 -0.34 12.58 0 0 Z " fill="#EBE7DD" transform="translate(274,529)"/>
<path d="M0 0 C0.99 0.33 1.98 0.66 3 1 C3 6.61 3 12.22 3 18 C2.01 17.67 1.02 17.34 0 17 C0 11.39 0 5.78 0 0 Z " fill="#EAE8E3" transform="translate(132,589)"/>
<path d="M0 0 C5.61 0 11.22 0 17 0 C17.33 0.99 17.66 1.98 18 3 C12.39 3 6.78 3 1 3 C0.67 2.01 0.34 1.02 0 0 Z " fill="#1D1D1C" transform="translate(396,562)"/>
<path d="M0 0 C0.33 0 0.66 0 1 0 C1 3.96 1 7.92 1 12 C0.67 12 0.34 12 0 12 C-0.33 15.3 -0.66 18.6 -1 22 C-1.33 22 -1.66 22 -2 22 C-2 15.4 -2 8.8 -2 2 C-1.34 2 -0.68 2 0 2 C0 1.34 0 0.68 0 0 Z " fill="#EBE8E0" transform="translate(479,539)"/>
<path d="M0 0 C2.31 0 4.62 0 7 0 C7 0.66 7 1.32 7 2 C9.31 2 11.62 2 14 2 C14 2.33 14 2.66 14 3 C7.4 3 0.8 3 -6 3 C-6 2.67 -6 2.34 -6 2 C-4.02 2 -2.04 2 0 2 C0 1.34 0 0.68 0 0 Z " fill="#333332" transform="translate(387,666)"/>
<path d="M0 0 C0.33 0 0.66 0 1 0 C1.33 7.59 1.66 15.18 2 23 C1.01 23 0.02 23 -1 23 C-0.67 15.41 -0.34 7.82 0 0 Z " fill="#3680D2" transform="translate(217,278)"/>
<path d="M0 0 C1.79341438 4.16673521 0.01173384 7.74663341 -1.4375 11.75 C-1.68048828 12.44738281 -1.92347656 13.14476562 -2.17382812 13.86328125 C-2.77310248 15.57885098 -3.38529885 17.28989715 -4 19 C-6 16 -6 16 -6 14 C-5.34 14 -4.68 14 -4 14 C-4 12.02 -4 10.04 -4 8 C-3.34 8 -2.68 8 -2 8 C-1.7834375 6.576875 -1.7834375 6.576875 -1.5625 5.125 C-1 2 -1 2 0 0 Z " fill="#E7E6E2" transform="translate(743,565)"/>
<path d="M0 0 C1.38294718 0.01329757 2.76582404 0.03715018 4.1484375 0.0703125 C4.85484375 0.07933594 5.56125 0.08835937 6.2890625 0.09765625 C8.03399848 0.12123647 9.77876045 0.15710789 11.5234375 0.1953125 C11.1934375 1.1853125 10.8634375 2.1753125 10.5234375 3.1953125 C5.2434375 2.8653125 -0.0365625 2.5353125 -5.4765625 2.1953125 C-3.4765625 0.1953125 -3.4765625 0.1953125 0 0 Z " fill="#D8D7D3" transform="translate(168.4765625,551.8046875)"/>
<path d="M0 0 C2 3 2 3 1.7578125 5.04296875 C1.171875 7.02864583 0.5859375 9.01432292 0 11 C-2.6855594 8.3144406 -3.06049974 5.62378672 -4 2 C-2.68 2 -1.36 2 0 2 C0 1.34 0 0.68 0 0 Z " fill="#E8E6E1" transform="translate(722,625)"/>
<path d="M0 0 C2.02350324 3.03525486 2.32124018 4.19426202 2.625 7.6875 C2.69976562 8.49574219 2.77453125 9.30398438 2.8515625 10.13671875 C2.90054687 10.75160156 2.94953125 11.36648438 3 12 C2.01 12.33 1.02 12.66 0 13 C-0.19551338 11.39679026 -0.38111983 9.79237014 -0.5625 8.1875 C-0.71912109 6.84751953 -0.71912109 6.84751953 -0.87890625 5.48046875 C-1 3 -1 3 0 0 Z " fill="#1A1A1A" transform="translate(446,585)"/>
<path d="M0 0 C0.99 1.32 1.98 2.64 3 4 C-0.99795892 4.95619733 -4.70803922 5.1039592 -8.8125 5.0625 C-9.97394531 5.05347656 -11.13539063 5.04445313 -12.33203125 5.03515625 C-13.21246094 5.02355469 -14.09289062 5.01195312 -15 5 C-15 4.67 -15 4.34 -15 4 C-11.37 4 -7.74 4 -4 4 C-3.67 3.01 -3.34 2.02 -3 1 C-2.01 0.67 -1.02 0.34 0 0 Z " fill="#454545" transform="translate(697,705)"/>
<path d="M0 0 C0.06058594 0.62648438 0.12117188 1.25296875 0.18359375 1.8984375 C0.26738281 2.71570313 0.35117187 3.53296875 0.4375 4.375 C0.55931641 5.59316406 0.55931641 5.59316406 0.68359375 6.8359375 C0.89090114 9.04272805 0.89090114 9.04272805 2 11 C-2.39158329 9.5361389 -2.87947433 7.02168662 -5 3 C-2.25 0 -2.25 0 0 0 Z " fill="#E0DFDB" transform="translate(424,657)"/>
<path d="M0 0 C0.99 0 1.98 0 3 0 C4.65 2.97 6.3 5.94 8 9 C7.01 9 6.02 9 5 9 C3.61328125 7.5390625 3.61328125 7.5390625 2.3125 5.625 C1.65701172 4.68527344 1.65701172 4.68527344 0.98828125 3.7265625 C0 2 0 2 0 0 Z " fill="#1B1B1B" transform="translate(359,650)"/>
<path d="M0 0 C0.66 0.33 1.32 0.66 2 1 C1.32829194 4.8063457 0.27253436 8.35206816 -1 12 C-1.66 11.34 -2.32 10.68 -3 10 C-2.67342446 6.24438133 -1.8830622 3.26397448 0 0 Z " fill="#1C1D1C" transform="translate(361,620)"/>
<path d="M0 0 C0.99 0 1.98 0 3 0 C3.38909985 1.45463481 3.76088029 2.91391207 4.125 4.375 C4.43824219 5.59316406 4.43824219 5.59316406 4.7578125 6.8359375 C4.83773437 7.55007813 4.91765625 8.26421875 5 9 C4.34 9.66 3.68 10.32 3 11 C2.49384702 9.73160474 1.99530901 8.46016898 1.5 7.1875 C1.2215625 6.47980469 0.943125 5.77210938 0.65625 5.04296875 C0 3 0 3 0 0 Z " fill="#212021" transform="translate(697,572)"/>
<path d="M0 0 C0.25 7.625 0.25 7.625 -2 11 C-2 8.03 -2 5.06 -2 2 C-4.64 2 -7.28 2 -10 2 C-10 1.67 -10 1.34 -10 1 C-2.25 0 -2.25 0 0 0 Z " fill="#F9F8F5" transform="translate(423,622)"/>
<path d="M0 0 C2.7920147 1.39600735 3.00162933 3.00416384 4.125 5.875 C4.47820313 6.75929688 4.83140625 7.64359375 5.1953125 8.5546875 C6 11 6 11 6 14 C5.01 13.67 4.02 13.34 3 13 C2.05078125 10.8203125 2.05078125 10.8203125 1.3125 8.125 C1.06113281 7.24070312 0.80976562 6.35640625 0.55078125 5.4453125 C0 3 0 3 0 0 Z " fill="#E6E6E3" transform="translate(684,611)"/>
<path d="M0 0 C2.39763185 2.39763185 2.34280586 3.33273498 2.625 6.625 C2.69976562 7.44226563 2.77453125 8.25953125 2.8515625 9.1015625 C2.90054688 9.72804688 2.94953125 10.35453125 3 11 C2.01 11 1.02 11 0 11 C-0.19406478 9.35492782 -0.38007935 7.70890406 -0.5625 6.0625 C-0.66691406 5.14597656 -0.77132812 4.22945312 -0.87890625 3.28515625 C-0.91886719 2.53105469 -0.95882812 1.77695312 -1 1 C-0.67 0.67 -0.34 0.34 0 0 Z " fill="#1C1C1B" transform="translate(131,604)"/>
<path d="M0 0 C0.99 0 1.98 0 3 0 C3.33 2.31 3.66 4.62 4 7 C4.66 7 5.32 7 6 7 C6 8.65 6 10.3 6 12 C3.25207517 8.59780735 0 4.51535412 0 0 Z " fill="#20201F" transform="translate(108,627)"/>
<path d="M0 0 C0.33 0 0.66 0 1 0 C1 3.63 1 7.26 1 11 C0.01 11 -0.98 11 -2 11 C-1.85957123 9.35369672 -1.71250671 7.70795821 -1.5625 6.0625 C-1.48128906 5.14597656 -1.40007812 4.22945312 -1.31640625 3.28515625 C-1 1 -1 1 0 0 Z " fill="#1B1B1C" transform="translate(359,635)"/>
<path d="M0 0 C3.91211733 1.15585285 6.8745041 2.35534962 10 5 C9.67 5.99 9.34 6.98 9 8 C7.68388323 7.04663979 6.37221039 6.08714226 5.0625 5.125 C4.33160156 4.59132813 3.60070312 4.05765625 2.84765625 3.5078125 C1 2 1 2 0 0 Z " fill="#D6D4D1" transform="translate(325,568)"/>
<path d="M0 0 C2.1953125 1.515625 2.1953125 1.515625 4 3 C2.37536158 3.05395478 0.75021459 3.09277195 -0.875 3.125 C-1.77992188 3.14820313 -2.68484375 3.17140625 -3.6171875 3.1953125 C-6 3 -6 3 -8 1 C-5.19084526 -0.40457737 -3.11189466 -0.24895157 0 0 Z " fill="#282928" transform="translate(171,549)"/>
<path d="M0 0 C4.81430721 -0.56638908 7.20307814 1.17438373 11 4 C10.67 4.66 10.34 5.32 10 6 C7.69 5.34 5.38 4.68 3 4 C3 3.34 3 2.68 3 2 C2.01 1.34 1.02 0.68 0 0 Z " fill="#357CD2" transform="translate(349,236)"/>
<path d="M0 0 C-2 2 -2 2 -5.125 2.125 C-6.548125 2.063125 -6.548125 2.063125 -8 2 C-8.33 1.34 -8.66 0.68 -9 0 C-5.93109813 -1.53445094 -3.29905734 -0.54984289 0 0 Z M-11 2 C-8 3 -8 3 -8 3 Z " fill="#181919" transform="translate(300,564)"/>
<path d="M0 0 C0.66 0 1.32 0 2 0 C2 0.66 2 1.32 2 2 C2.99 2.33 3.98 2.66 5 3 C6.39712274 4.95597184 7.73779907 6.95436401 9 9 C8.67 9.66 8.34 10.32 8 11 C6.66072279 9.54712339 5.32873153 8.08752741 4 6.625 C3.2575 5.81289062 2.515 5.00078125 1.75 4.1640625 C0 2 0 2 0 0 Z " fill="#246BCC" transform="translate(454,242)"/>
<path d="M0 0 C0.66 0.99 1.32 1.98 2 3 C-0.64 4.98 -3.28 6.96 -6 9 C-5.34 7.68 -4.68 6.36 -4 5 C-3.67 4.278125 -3.34 3.55625 -3 2.8125 C-2 1 -2 1 0 0 Z " fill="#181919" transform="translate(370,612)"/>
<path d="M0 0 C0.99 0 1.98 0 3 0 C2.01 3.3 1.02 6.6 0 10 C-0.33 10 -0.66 10 -1 10 C-1.125 2.25 -1.125 2.25 0 0 Z " fill="#1B1B1B" transform="translate(754,609)"/>
<path d="M0 0 C0.99 0 1.98 0 3 0 C6 3.33333333 6 3.33333333 6 6 C5.34 6 4.68 6 4 6 C3.67 6.66 3.34 7.32 3 8 C0 2.25 0 2.25 0 0 Z " fill="#1F6DCD" transform="translate(227,336)"/>
<path d="M0 0 C0.99 0 1.98 0 3 0 C2.47731534 2.76276177 1.89130413 5.3260876 1 8 C0.01 8 -0.98 8 -2 8 C-1.34 5.36 -0.68 2.72 0 0 Z " fill="#1F1E1E" transform="translate(736,590)"/>
<path d="M0 0 C0.99 0 1.98 0 3 0 C3 2.64 3 5.28 3 8 C2.34 8 1.68 8 1 8 C-0.35439668 5.29120665 -0.06501451 2.99066732 0 0 Z " fill="#1C1B1C" transform="translate(362,589)"/>
<path d="M0 0 C0.33 0 0.66 0 1 0 C0.56179109 4.55737263 0.14958831 7.57653445 -3 11 C-2.25 3.375 -2.25 3.375 0 0 Z " fill="#EBE9E5" transform="translate(112,555)"/>
<path d="M0 0 C0.99 0 1.98 0 3 0 C3.66 2.31 4.32 4.62 5 7 C4.01 7 3.02 7 2 7 C1.34 4.69 0.68 2.38 0 0 Z " fill="#181919" transform="translate(686,613)"/>
<path d="M0 0 C0.99 0 1.98 0 3 0 C3 0.66 3 1.32 3 2 C3.66 2.33 4.32 2.66 5 3 C2.69 3.66 0.38 4.32 -2 5 C-1.125 1.125 -1.125 1.125 0 0 Z " fill="#2F2F2F" transform="translate(156,551)"/>
<path d="M0 0 C0.33 0.66 0.66 1.32 1 2 C3.35599235 2.46751788 3.35599235 2.46751788 6.0625 2.625 C7.44115234 2.73714844 7.44115234 2.73714844 8.84765625 2.8515625 C9.55792969 2.90054688 10.26820313 2.94953125 11 3 C11 3.33 11 3.66 11 4 C5.06 4.495 5.06 4.495 -1 5 C-0.67 3.35 -0.34 1.7 0 0 Z " fill="#3D7FD2" transform="translate(339,235)"/>
<path d="M0 0 C0.95904856 3.83619425 0.91892116 5.32431536 0 9 C-0.99 9 -1.98 9 -3 9 C-2.01 6.03 -1.02 3.06 0 0 Z " fill="#EAE8E3" transform="translate(731,677)"/>
<path d="M0 0 C1.36398513 2.24299778 2.05762059 3.49070833 1.7578125 6.140625 C1.171875 8.09375 0.5859375 10.046875 0 12 C-1.03159626 8.90521121 -0.97482862 7.47368607 -0.5625 4.3125 C-0.46066406 3.50425781 -0.35882812 2.69601562 -0.25390625 1.86328125 C-0.17011719 1.24839844 -0.08632813 0.63351562 0 0 Z " fill="#242323" transform="translate(731,605)"/>
<path d="M0 0 C0 3.28176588 -0.47835901 5.10888212 -2 8 C-4.125 8.8125 -4.125 8.8125 -6 9 C-2.25 2.25 -2.25 2.25 0 0 Z " fill="#1E68CC" transform="translate(245,159)"/>
<path d="M0 0 C1.125 1.625 1.125 1.625 2 4 C1.125 7.25 1.125 7.25 0 10 C-0.66 9.01 -1.32 8.02 -2 7 C-1.125 3.3125 -1.125 3.3125 0 0 Z " fill="#E6E4E0" transform="translate(742,648)"/>
<path d="M0 0 C1.74834267 2.622514 2.51529754 3.99484478 3 7 C2.67 7.66 2.34 8.32 2 9 C1.34 9 0.68 9 0 9 C0 6.03 0 3.06 0 0 Z " fill="#E0DED9" transform="translate(272,566)"/>
<path d="M0 0 C1.24546405 2.49092811 0.7767578 3.41080733 0 6 C-0.66 6 -1.32 6 -2 6 C-2 6.66 -2 7.32 -2 8 C-2.66 8 -3.32 8 -4 8 C-2.25 2.25 -2.25 2.25 0 0 Z " fill="#E8E8E4" transform="translate(140,569)"/>
</svg>
