<?xml version="1.0" encoding="UTF-8"?>
<svg version="1.1" xmlns="http://www.w3.org/2000/svg" width="1024" height="1024">
<path d="M0 0 C337.92 0 675.84 0 1024 0 C1024 337.92 1024 675.84 1024 1024 C686.08 1024 348.16 1024 0 1024 C0 686.08 0 348.16 0 0 Z " fill="#F4F0E7" transform="translate(0,0)"/>
<path d="M0 0 C1.8918369 -0.00271419 3.78367273 -0.00627751 5.67550659 -0.01062012 C10.78716191 -0.01969675 15.89873602 -0.0162191 21.01039267 -0.00986195 C26.37746483 -0.00477592 31.74453033 -0.00950075 37.11160278 -0.01263428 C46.12454467 -0.01626698 55.13745373 -0.01149375 64.15039062 -0.00195312 C74.5449016 0.00892346 84.93933405 0.0054088 95.33384311 -0.00560594 C104.28282078 -0.01470655 113.23177493 -0.01595035 122.18075573 -0.0107286 C127.51473152 -0.00762327 132.84867052 -0.00715968 138.18264389 -0.01380157 C143.20109065 -0.01961463 148.21943706 -0.01550624 153.23787308 -0.00401306 C155.07073552 -0.00138725 156.90360652 -0.00209562 158.73646545 -0.00653839 C197.67096746 -0.09215157 233.11707498 14.1802678 260.96142578 41.57128906 C292.05764216 73.18322398 303.76517084 114.22191975 303.54003906 157.57421875 C303.52394976 161.25330675 303.53997642 164.93129656 303.55908203 168.61035156 C303.59816412 211.8542249 289.95977916 248.58827942 260.14892578 280.25878906 C259.32714844 281.15984375 259.32714844 281.15984375 258.48876953 282.07910156 C238.00678408 303.71854565 208.10833096 316.65694026 179.14892578 321.25878906 C178.05340897 321.43645813 176.95789215 321.6141272 175.82917786 321.79718018 C170.08034867 322.49897972 164.31692305 322.3418419 158.53517532 322.28041267 C156.33772965 322.25709313 154.140309 322.2400225 151.9427948 322.22453308 C149.57088503 322.20779037 147.1989842 322.19069299 144.82709062 322.17178202 C138.93833845 322.1253703 133.04976021 322.10024988 127.1608429 322.08770752 C126.30243024 322.08587298 125.44401759 322.08403844 124.55959243 322.08214831 C121.02104223 322.07505796 117.48249131 322.06875484 113.94393861 322.06305075 C103.94165746 322.04627359 93.94052084 322.00868087 83.9387207 321.90576172 C75.97296052 321.82392874 68.0084996 321.78897179 60.0423196 321.80727601 C55.83819785 321.81524683 51.63703282 321.80098875 47.43344688 321.72966766 C29.02837644 321.43249319 14.17088121 321.50790228 -0.12672615 334.70917034 C-2.64242472 336.96995148 -5.35886533 338.77259067 -8.17529297 340.64160156 C-9.96351603 341.88833407 -11.75128685 343.13571553 -13.53857422 344.38378906 C-20.80582729 349.44897323 -28.08107285 354.50142209 -35.38964844 359.50683594 C-38.47528746 361.62075439 -41.55215882 363.74550187 -44.61279297 365.89550781 C-45.51167236 366.52501343 -45.51167236 366.52501343 -46.42871094 367.16723633 C-48.04666682 368.30180911 -49.66187038 369.44030404 -51.27685547 370.57910156 C-56.48022251 373.9743183 -61.81966048 373.86365864 -67.85107422 373.25878906 C-73.32093713 370.77248774 -75.29544667 367.46469704 -77.85107422 362.25878906 C-78.93564603 359.00507362 -78.97154279 356.64979586 -78.96459961 353.22680664 C-78.96452408 351.98574661 -78.96444855 350.74468658 -78.96437073 349.46601868 C-78.95926412 348.11178548 -78.95404813 346.7575527 -78.94873047 345.40332031 C-78.94686505 344.01755321 -78.94544173 342.63178545 -78.94444275 341.24601746 C-78.94062732 337.60130996 -78.93080534 333.95664241 -78.91973877 330.31195068 C-78.90950371 326.59176168 -78.90494064 322.87156622 -78.89990234 319.15136719 C-78.8891822 311.85382295 -78.87211747 304.55631161 -78.85107422 297.25878906 C-80.03332329 296.80233253 -80.03332329 296.80233253 -81.23945618 296.33665466 C-83.70858903 295.31759547 -85.26526116 294.33326461 -87.26904297 292.60644531 C-87.8783667 292.0834082 -88.48769043 291.56037109 -89.11547852 291.02148438 C-89.7501001 290.46041992 -90.38472168 289.89935547 -91.03857422 289.32128906 C-92.03594604 288.4429541 -92.03594604 288.4429541 -93.0534668 287.546875 C-119.85201076 263.6264408 -135.99336476 231.46308122 -141.85107422 196.25878906 C-142.02759521 195.26838623 -142.20411621 194.2779834 -142.38598633 193.25756836 C-143.13279609 187.91266208 -143.01366045 182.52786639 -143.01904297 177.14160156 C-143.02237137 175.97104218 -143.02569977 174.80048279 -143.02912903 173.5944519 C-143.03418171 171.11831045 -143.03653787 168.64216222 -143.03637695 166.16601562 C-143.03854668 162.43119624 -143.05667401 158.69668061 -143.07568359 154.96191406 C-143.11633221 138.41343243 -142.7970497 122.35213246 -138.22607422 106.32128906 C-137.84128906 104.94396606 -137.84128906 104.94396606 -137.44873047 103.53881836 C-134.77625729 94.37277363 -131.08857625 85.79840278 -126.85107422 77.25878906 C-126.35865234 76.246875 -125.86623047 75.23496094 -125.35888672 74.19238281 C-118.57175048 61.02073705 -109.22779649 49.72886593 -98.85107422 39.25878906 C-98.07505859 38.46988281 -97.29904297 37.68097656 -96.49951172 36.86816406 C-78.24582366 19.42993286 -54.1861412 8.13689774 -29.85107422 2.25878906 C-29.12389631 2.08015446 -28.39671841 1.90151985 -27.64750481 1.71747208 C-18.47693602 -0.23918562 -9.32715827 -0.02255397 0 0 Z " fill="#2878D0" transform="translate(430.85107421875,207.7412109375)"/>
<path d="M0 0 C0.94359375 0.42410156 1.8871875 0.84820313 2.859375 1.28515625 C16.11676111 7.85891538 24.78532366 17.91545242 29.9375 31.75 C31.17865035 35.95612063 31.38312603 39.63236326 31 44 C27.42327038 47.57672962 21.90091936 46.36940322 17.0625 46.375 C15.95197266 46.39949219 14.84144531 46.42398438 13.69726562 46.44921875 C12.10108398 46.45501953 12.10108398 46.45501953 10.47265625 46.4609375 C9.00711304 46.47326416 9.00711304 46.47326416 7.51196289 46.48583984 C5 46 5 46 3.22705078 44.11694336 C1.91850011 41.85939404 0.85567169 39.57888636 -0.1875 37.1875 C-3.38149664 30.68440775 -8.02986379 26.17452095 -14.625 23.125 C-25.21976089 19.59341304 -34.9493392 20.1328884 -45 25 C-55.98988877 31.58634094 -62.36621388 41.48094189 -65.4609375 53.7578125 C-67.71045359 67.28751074 -67.01985438 84.45980257 -59 96 C-52.97652971 103.9860354 -46.09676372 110.12750927 -36 112 C-26.6307089 112.67957997 -18.52960076 112.26480038 -10 108 C-9.34515625 107.67257812 -8.6903125 107.34515625 -8.015625 107.0078125 C-2.23787874 103.50537339 0.63342752 97.66801468 4 92 C6.53309722 89.46690278 13.52994908 90.81444829 16.9375 90.8125 C18.62262695 90.79413086 18.62262695 90.79413086 20.34179688 90.77539062 C21.94958008 90.77249023 21.94958008 90.77249023 23.58984375 90.76953125 C25.07278931 90.76336792 25.07278931 90.76336792 26.58569336 90.75708008 C29 91 29 91 31 93 C31.79532261 102.46229973 26.33265804 110.54549022 20.8125 117.6875 C10.70262589 129.53526982 -3.57879846 136.32424357 -19 138 C-37.78334582 139.41492721 -54.49094301 136.74094634 -69.7890625 124.828125 C-72.29249987 122.63478108 -74.65943901 120.36546058 -77 118 C-77.62390625 117.40960937 -78.2478125 116.81921875 -78.890625 116.2109375 C-91.79204867 103.01894123 -96.26536648 83.52095197 -96.17626953 65.68994141 C-95.90181581 45.9757197 -90.17869991 28.85619688 -76.55078125 14.40234375 C-57.47917077 -3.53155684 -24.41177277 -11.45640213 0 0 Z " fill="#111213" transform="translate(272,636)"/>
<path d="M0 0 C0.73871338 0.00491455 1.47742676 0.0098291 2.23852539 0.01489258 C14.80499768 0.28081359 27.77192869 4.13038161 36.75 13.3125 C43.48670956 22.81838585 45.04230337 30.69908796 45.1640625 42.140625 C45.18342865 43.284245 45.2027948 44.42786499 45.2227478 45.60614014 C45.2822748 49.25818487 45.32865921 52.91026672 45.375 56.5625 C45.41323599 58.97136743 45.45229087 61.380222 45.4921875 63.7890625 C45.58452601 69.5661944 45.65560089 75.34328583 45.71447754 81.12084961 C45.74821072 84.15173508 45.79467346 87.18220533 45.84277344 90.21289062 C45.86205013 91.94921088 45.8806545 93.6855388 45.8984375 95.421875 C45.91379547 96.20459778 45.92915344 96.98732056 45.94497681 97.79376221 C45.95659024 99.63445256 45.86346482 101.47527339 45.75 103.3125 C43.75 105.3125 43.75 105.3125 41.42749023 105.55541992 C40.48075439 105.55131104 39.53401855 105.54720215 38.55859375 105.54296875 C37.53185547 105.54103516 36.50511719 105.53910156 35.44726562 105.53710938 C34.37154297 105.52486328 33.29582031 105.51261719 32.1875 105.5 C31.10791016 105.49935547 30.02832031 105.49871094 28.91601562 105.49804688 C20.89014598 105.45264598 20.89014598 105.45264598 19.75 104.3125 C19.29540142 101.65786879 19.04756762 98.99060862 18.75 96.3125 C18.04037109 96.89257812 18.04037109 96.89257812 17.31640625 97.484375 C7.548348 105.17695889 -1.24242905 107.49606342 -13.5 107.625 C-14.40363281 107.65400391 -15.30726563 107.68300781 -16.23828125 107.71289062 C-25.24804598 107.79715461 -32.39631517 104.6808023 -39.45703125 99.15625 C-46.21955695 92.20219308 -47.54677887 83.37069292 -47.56689453 74.09960938 C-47.40758316 65.97276254 -44.54693985 59.82032387 -39.07421875 53.87890625 C-28.10990456 44.46415253 -13.98395236 44.98294473 -0.37890625 44.83398438 C8.59211636 44.64746648 8.59211636 44.64746648 16.75 41.3125 C18.16000664 38.49248673 17.99548451 36.44242745 17.75 33.3125 C16.70904742 30.18964226 15.54657544 28.78098402 12.7109375 27.11328125 C5.74694209 23.96290238 -1.0846076 22.98601318 -8.546875 24.90234375 C-14.4624725 27.31528484 -16.73442907 31.65246541 -19.25 37.3125 C-21.7919589 37.36684116 -24.33273682 37.4063339 -26.875 37.4375 C-27.58785156 37.45425781 -28.30070312 37.47101562 -29.03515625 37.48828125 C-33.50245682 37.52926566 -37.05578755 37.05471132 -41.25 35.3125 C-42.25 34.3125 -42.25 34.3125 -42.6875 31.5 C-42.54562136 24.60469826 -38.58571743 18.06466317 -34.234375 12.9375 C-24.89515317 4.06859869 -12.74811256 -0.1017019 0 0 Z " fill="#111213" transform="translate(477.25,665.6875)"/>
<path d="M0 0 C1.53333984 -0.00386719 1.53333984 -0.00386719 3.09765625 -0.0078125 C4.16886719 -0.00007812 5.24007813 0.00765625 6.34375 0.015625 C7.95056641 0.00402344 7.95056641 0.00402344 9.58984375 -0.0078125 C10.61207031 -0.00523437 11.63429688 -0.00265625 12.6875 0 C13.62787109 0.00225586 14.56824219 0.00451172 15.53710938 0.00683594 C17.84375 0.265625 17.84375 0.265625 19.84375 2.265625 C20.08425903 4.29043579 20.08425903 4.29043579 20.07080078 6.80712891 C20.07064972 7.74795319 20.07049866 8.68877747 20.07034302 9.65811157 C20.06002045 10.67585663 20.04969788 11.69360168 20.0390625 12.7421875 C20.0362326 13.78257172 20.03340271 14.82295593 20.03048706 15.89486694 C20.01926704 19.22690194 19.99415915 22.55867086 19.96875 25.890625 C19.95872256 28.14582946 19.9495963 30.40103812 19.94140625 32.65625 C19.91932178 38.19279954 19.88582639 43.72919327 19.84375 49.265625 C20.50375 49.265625 21.16375 49.265625 21.84375 49.265625 C22.17375 48.275625 22.50375 47.285625 22.84375 46.265625 C25.1015625 44.51171875 25.1015625 44.51171875 27.96875 42.703125 C28.89945312 42.10371094 29.83015625 41.50429688 30.7890625 40.88671875 C36.99206131 37.59484598 42.77676766 36.90210648 49.65625 36.953125 C50.45087646 36.95876465 51.24550293 36.9644043 52.06420898 36.97021484 C63.08433938 37.19771268 71.27354312 40.44203254 79.5625 47.7890625 C87.07704747 55.64866572 89.95559781 66.54002111 89.98901367 77.13549805 C89.99237228 77.80601196 89.9957309 78.47652588 89.99919128 79.1673584 C90.00864589 81.37070596 90.01064106 83.5739772 90.01171875 85.77734375 C90.01493318 87.31240368 90.01829739 88.8474633 90.02180481 90.38252258 C90.02778088 93.59266878 90.02964608 96.80278809 90.02905273 100.01293945 C90.02895074 104.13235501 90.0426476 108.25159962 90.05982494 112.37097454 C90.07091965 115.53732603 90.07297279 118.70363571 90.07244301 121.87000465 C90.07362523 123.38949998 90.07806051 124.90899632 90.08577538 126.42847252 C90.09553225 128.5470843 90.09271551 130.66531816 90.08666992 132.78393555 C90.08809494 133.99019089 90.08951996 135.19644623 90.09098816 136.43925476 C89.84375 139.265625 89.84375 139.265625 87.84375 141.265625 C85.53710938 141.52441406 85.53710938 141.52441406 82.6875 141.53125 C81.15416016 141.53511719 81.15416016 141.53511719 79.58984375 141.5390625 C78.51863281 141.53132812 77.44742188 141.52359375 76.34375 141.515625 C75.27253906 141.52335938 74.20132813 141.53109375 73.09765625 141.5390625 C72.07542969 141.53648437 71.05320312 141.53390625 70 141.53125 C69.05962891 141.52899414 68.11925781 141.52673828 67.15039062 141.52441406 C64.84375 141.265625 64.84375 141.265625 62.84375 139.265625 C62.58546448 136.80784607 62.58546448 136.80784607 62.57250977 133.67358398 C62.55722984 131.91551674 62.55722984 131.91551674 62.54164124 130.12193298 C62.53950119 128.84806229 62.53736115 127.57419159 62.53515625 126.26171875 C62.5164335 124.26340197 62.49769365 122.26508518 62.47797298 120.26677799 C62.43263124 115.33444322 62.40912554 110.40196904 62.38745117 105.46948242 C62.37458038 102.70683134 62.35380587 99.94443233 62.32518005 97.18190002 C62.29905257 94.58201071 62.28504434 91.98196333 62.2848053 89.38194275 C62.19347762 81.20613278 61.76365475 73.99661441 56.59375 67.390625 C50.71195668 62.84560289 45.91173126 61.69197035 38.5625 61.9140625 C33.20440784 62.60691925 29.46458353 64.77621041 25.53125 68.390625 C20.60473216 76.78395169 20.39223332 85.59808064 20.3671875 95.11328125 C20.34339097 97.08830847 20.31959015 99.06333566 20.2955265 101.03835964 C20.26576381 103.77357807 20.24916565 106.50881599 20.23248291 109.24414062 C20.2006824 114.06990367 20.14995447 118.89549341 20.09609985 123.72105408 C20.0688191 126.28509351 20.04749154 128.84920424 20.03256226 131.41334534 C20.01716904 133.13665321 20.01716904 133.13665321 20.00146484 134.89477539 C19.99496918 135.91052139 19.98847351 136.9262674 19.98178101 137.97279358 C19.84375 140.265625 19.84375 140.265625 18.84375 141.265625 C14.87099185 141.51819377 10.88608825 141.45084951 6.90625 141.453125 C5.78283203 141.46537109 4.65941406 141.47761719 3.50195312 141.49023438 C2.43009766 141.49216797 1.35824219 141.49410156 0.25390625 141.49609375 C-0.73472412 141.50020264 -1.72335449 141.50431152 -2.74194336 141.50854492 C-5.15625 141.265625 -5.15625 141.265625 -7.15625 139.265625 C-7.40793228 136.88553619 -7.40793228 136.88553619 -7.41021729 133.83752441 C-7.41585693 132.6849263 -7.42149658 131.53232819 -7.42730713 130.34480286 C-7.42325867 129.07408432 -7.41921021 127.80336578 -7.41503906 126.49414062 C-7.41774801 125.1473522 -7.42130841 123.80056525 -7.42565918 122.45378113 C-7.43479691 118.79062218 -7.43123328 115.12757557 -7.42490101 111.4644146 C-7.41984815 107.63630743 -7.42453047 103.80821007 -7.42767334 99.98010254 C-7.43131508 93.55068225 -7.42650847 87.12130786 -7.41699219 80.69189453 C-7.40610722 73.25170351 -7.40963265 65.8116221 -7.420645 58.37143373 C-7.42971199 51.99093832 -7.43100605 45.61047595 -7.42576766 39.22997618 C-7.42264471 35.41589784 -7.42224749 31.60187107 -7.42884064 27.78779602 C-7.43460495 24.2025621 -7.43063414 20.61746991 -7.41905212 17.03225136 C-7.41513268 15.08365195 -7.42109898 13.1350406 -7.42730713 11.18644714 C-7.42166748 10.03384903 -7.41602783 8.88125092 -7.41021729 7.69372559 C-7.40946323 6.6878817 -7.40870918 5.68203781 -7.40793228 4.64571381 C-6.90038064 -0.15405979 -4.13200352 0.00991228 0 0 Z " fill="#101112" transform="translate(325.15625,629.734375)"/>
<path d="M0 0 C1.00224609 -0.02449219 2.00449219 -0.04898438 3.03710938 -0.07421875 C4.00326172 -0.07808594 4.96941406 -0.08195313 5.96484375 -0.0859375 C7.28730103 -0.09826416 7.28730103 -0.09826416 8.63647461 -0.11083984 C11.91432097 0.54558707 13.00913564 1.77107595 15.0625 4.375 C16.26000977 6.87573242 16.26000977 6.87573242 17.25390625 9.73046875 C17.63611328 10.81255615 18.01832031 11.89464355 18.41210938 13.00952148 C18.81236328 14.18200439 19.21261719 15.3544873 19.625 16.5625 C20.04974609 17.7781665 20.47449219 18.99383301 20.91210938 20.24633789 C24.88927123 31.66240736 28.70093997 43.13779391 32.48266602 54.61987305 C32.81948143 55.64071991 32.81948143 55.64071991 33.1631012 56.68218994 C33.7716614 58.52844712 34.37809486 60.37540494 34.984375 62.22241211 C35.9280998 64.98199505 36.94903908 67.68023479 38.0625 70.375 C41.53032977 62.21101926 44.31869936 53.84668534 47.09405518 45.43011475 C47.88551364 43.03062547 48.68124369 40.63258908 49.47802734 38.23486328 C51.78034305 31.30161001 54.06983688 24.36443158 56.33203125 17.41796875 C56.65260498 16.43932861 56.97317871 15.46068848 57.3034668 14.45239258 C57.87670382 12.70006984 58.44489114 10.94608397 59.00708008 9.19018555 C60.83871495 3.59878505 60.83871495 3.59878505 63.0625 1.375 C65.56860352 1.13208008 65.56860352 1.13208008 68.69140625 1.14453125 C69.80837891 1.14646484 70.92535156 1.14839844 72.07617188 1.15039062 C73.8328418 1.16875977 73.8328418 1.16875977 75.625 1.1875 C76.79998047 1.18814453 77.97496094 1.18878906 79.18554688 1.18945312 C87.92237859 1.23487859 87.92237859 1.23487859 89.0625 2.375 C88.59925514 7.8192176 87.12226651 12.52757236 85.2109375 17.62109375 C84.77482903 18.80825989 84.77482903 18.80825989 84.32991028 20.01940918 C83.37258704 22.61967945 82.40524379 25.21609182 81.4375 27.8125 C80.76163911 29.64052657 80.08627264 31.46873601 79.41137695 33.29711914 C77.30551074 38.99364397 75.18473678 44.68455823 73.0625 50.375 C72.39005999 52.18096102 71.7176952 53.98695004 71.04541016 55.79296875 C67.01913017 66.60293329 62.96273152 77.40129727 58.88598633 88.19232178 C58.09959696 90.27667326 57.31583538 92.36198919 56.53320312 94.44775391 C55.19647554 98.00975586 53.84927336 101.56772949 52.5 105.125 C52.13092529 106.11105225 51.76185059 107.09710449 51.3815918 108.11303711 C46.16870832 121.75904948 40.54557778 134.77322621 27.0625 141.875 C17.89520221 145.96733722 9.13421178 147.35760603 -0.9375 146.375 C-2.9375 144.375 -2.9375 144.375 -3.18041992 142.32788086 C-3.17425659 141.09630249 -3.17425659 141.09630249 -3.16796875 139.83984375 C-3.16603516 138.94845703 -3.16410156 138.05707031 -3.16210938 137.13867188 C-3.14986328 136.20603516 -3.13761719 135.27339844 -3.125 134.3125 C-3.12435547 133.37599609 -3.12371094 132.43949219 -3.12304688 131.47460938 C-3.07769224 124.51519224 -3.07769224 124.51519224 -1.9375 123.375 C0.12019762 123.05118492 2.18404877 122.76612253 4.25 122.5 C10.82792914 121.4996366 15.11629914 120.78214317 19.4375 115.4375 C23.0145495 108.11396182 21.59986887 100.26046247 19.06410217 92.83720398 C17.50520286 88.55235961 15.85234403 84.30706144 14.1875 80.0625 C13.4726419 78.19505684 12.75970826 76.326876 12.04858398 74.45800781 C10.14485446 69.4697675 8.21732372 64.49109483 6.28253174 59.51483154 C2.94758797 50.93213544 -0.36150006 42.33945 -3.66925049 33.74624634 C-4.8581949 30.66850228 -6.05791106 27.59512995 -7.25927734 24.5222168 C-7.99470121 22.62427727 -8.72990143 20.72625105 -9.46484375 18.828125 C-9.80266373 17.97263565 -10.1404837 17.1171463 -10.48854065 16.23573303 C-12.2821317 11.57663733 -13.45367639 7.34932453 -13.9375 2.375 C-9.478244 -0.59783733 -5.24661565 0.00672212 0 0 Z " fill="#111213" transform="translate(755.9375,667.625)"/>
<path d="M0 0 C1.12341797 -0.01224609 2.24683594 -0.02449219 3.40429688 -0.03710938 C5.01208008 -0.04000977 5.01208008 -0.04000977 6.65234375 -0.04296875 C8.13528931 -0.04913208 8.13528931 -0.04913208 9.64819336 -0.05541992 C12.0625 0.1875 12.0625 0.1875 14.0625 2.1875 C14.28955078 4.52587891 14.28955078 4.52587891 14.2578125 7.4140625 C14.25136719 8.4453125 14.24492188 9.4765625 14.23828125 10.5390625 C14.22152344 11.61929688 14.20476563 12.69953125 14.1875 13.8125 C14.17847656 14.90046875 14.16945313 15.9884375 14.16015625 17.109375 C14.13653409 19.80230152 14.10359556 22.49479255 14.0625 25.1875 C15.03860229 25.17178955 15.03860229 25.17178955 16.03442383 25.15576172 C18.9812433 25.11420165 21.92800111 25.08817392 24.875 25.0625 C25.89916016 25.04574219 26.92332031 25.02898438 27.97851562 25.01171875 C28.96142578 25.00527344 29.94433594 24.99882813 30.95703125 24.9921875 C31.86300049 24.98171387 32.76896973 24.97124023 33.70239258 24.96044922 C36.0625 25.1875 36.0625 25.1875 39.0625 27.1875 C39.41894531 29.23461914 39.41894531 29.23461914 39.390625 31.72265625 C39.38546875 32.61404297 39.3803125 33.50542969 39.375 34.42382812 C39.354375 35.35646484 39.33375 36.28910156 39.3125 37.25 C39.30734375 38.18650391 39.3021875 39.12300781 39.296875 40.08789062 C39.21640339 47.03359661 39.21640339 47.03359661 38.0625 48.1875 C36.28178754 48.27476223 34.4976686 48.29449041 32.71484375 48.28515625 C31.63525391 48.28193359 30.55566406 48.27871094 29.44335938 48.27539062 C28.30705078 48.26701172 27.17074219 48.25863281 26 48.25 C24.85982422 48.24548828 23.71964844 48.24097656 22.54492188 48.23632812 C19.71739649 48.22449747 16.8899736 48.2080141 14.0625 48.1875 C14.12959538 55.05633903 14.21943982 61.92461316 14.32495117 68.79296875 C14.35816333 71.12851237 14.38620676 73.46413553 14.40893555 75.79980469 C14.44254901 79.16115145 14.49487003 82.52177169 14.55078125 85.8828125 C14.56036613 87.44408371 14.56036613 87.44408371 14.57014465 89.03689575 C14.67954248 94.45624862 14.91294867 98.55911867 18.0625 103.1875 C22.42279112 106.12135302 26.12754843 106.57900692 31.3125 106.75 C37.85266393 106.97766393 37.85266393 106.97766393 40.0625 109.1875 C40.28802341 112.04315359 40.38678763 114.7700351 40.375 117.625 C40.39111328 118.40166016 40.40722656 119.17832031 40.42382812 119.97851562 C40.42876947 125.71541334 40.42876947 125.71541334 38.73999023 127.89208984 C33.00660843 132.31958567 21.14297283 130.86933643 14.0625 130.1875 C4.81517616 128.05774642 -1.86247549 123.57683615 -8.32421875 116.7734375 C-13.28996312 108.8138182 -13.35073532 100.07436683 -13.23046875 90.9609375 C-13.22622391 89.73210846 -13.22197906 88.50327942 -13.21760559 87.23721313 C-13.2009279 83.3454111 -13.16329504 79.45414327 -13.125 75.5625 C-13.10993911 72.91016377 -13.09625317 70.25781936 -13.08398438 67.60546875 C-13.0510601 61.13263287 -13.00097008 54.66010462 -12.9375 48.1875 C-14.14148438 48.21070313 -15.34546875 48.23390625 -16.5859375 48.2578125 C-18.16145215 48.27656863 -19.73697348 48.29476899 -21.3125 48.3125 C-22.1065625 48.32925781 -22.900625 48.34601562 -23.71875 48.36328125 C-25.79242015 48.38085473 -27.86633241 48.29085168 -29.9375 48.1875 C-32.2965074 45.8284926 -32.19316879 45.3578766 -32.203125 42.16015625 C-32.20570313 41.36802734 -32.20828125 40.57589844 -32.2109375 39.75976562 C-32.19933594 38.51743164 -32.19933594 38.51743164 -32.1875 37.25 C-32.19523438 36.42564453 -32.20296875 35.60128906 -32.2109375 34.75195312 C-32.20835937 33.95853516 -32.20578125 33.16511719 -32.203125 32.34765625 C-32.20086914 31.62199463 -32.19861328 30.89633301 -32.19628906 30.14868164 C-31.9375 28.1875 -31.9375 28.1875 -29.9375 25.1875 C-27.1489711 24.96642213 -24.59096819 24.90642465 -21.8125 25 C-20.68134766 25.02030273 -20.68134766 25.02030273 -19.52734375 25.04101562 C-17.66375873 25.07640015 -15.80054022 25.13020833 -13.9375 25.1875 C-13.94910156 24.37667969 -13.96070313 23.56585937 -13.97265625 22.73046875 C-14.03132561 15.53090001 -14.04015446 8.32072143 -12.9375 1.1875 C-10.40440278 -1.34559722 -3.40755092 0.00194829 0 0 Z " fill="#101112" transform="translate(565.9375,642.8125)"/>
<path d="M0 0 C1.12341797 -0.01224609 2.24683594 -0.02449219 3.40429688 -0.03710938 C5.01208008 -0.04000977 5.01208008 -0.04000977 6.65234375 -0.04296875 C8.13528931 -0.04913208 8.13528931 -0.04913208 9.64819336 -0.05541992 C12.0625 0.1875 12.0625 0.1875 14.0625 2.1875 C14.28955078 4.52587891 14.28955078 4.52587891 14.2578125 7.4140625 C14.25136719 8.4453125 14.24492188 9.4765625 14.23828125 10.5390625 C14.22152344 11.61929688 14.20476563 12.69953125 14.1875 13.8125 C14.17847656 14.90046875 14.16945313 15.9884375 14.16015625 17.109375 C14.13653409 19.80230152 14.10359556 22.49479255 14.0625 25.1875 C14.71323486 25.17178955 15.36396973 25.1560791 16.03442383 25.13989258 C18.98119424 25.07755351 21.92782598 25.03851316 24.875 25 C25.89916016 24.97486328 26.92332031 24.94972656 27.97851562 24.92382812 C29.45288086 24.90932617 29.45288086 24.90932617 30.95703125 24.89453125 C31.86300049 24.8788208 32.76896973 24.86311035 33.70239258 24.84692383 C36.0625 25.1875 36.0625 25.1875 37.85888672 26.44580078 C39.33421078 28.58068148 39.43637847 29.76794807 39.42578125 32.34765625 C39.42481445 33.5377832 39.42481445 33.5377832 39.42382812 34.75195312 C39.40771484 35.57630859 39.39160156 36.40066406 39.375 37.25 C39.37822266 38.07822266 39.38144531 38.90644531 39.38476562 39.75976562 C39.32962592 45.92037408 39.32962592 45.92037408 37.0625 48.1875 C34.72412109 48.41455078 34.72412109 48.41455078 31.8359375 48.3828125 C30.2890625 48.37314453 30.2890625 48.37314453 28.7109375 48.36328125 C27.09058594 48.33814453 27.09058594 48.33814453 25.4375 48.3125 C24.34953125 48.30347656 23.2615625 48.29445313 22.140625 48.28515625 C19.44769848 48.26153409 16.75520745 48.22859556 14.0625 48.1875 C14.12959538 55.05633903 14.21943982 61.92461316 14.32495117 68.79296875 C14.35816333 71.12851237 14.38620676 73.46413553 14.40893555 75.79980469 C14.44254901 79.16115145 14.49487003 82.52177169 14.55078125 85.8828125 C14.56036613 87.44408371 14.56036613 87.44408371 14.57014465 89.03689575 C14.67991457 94.47468145 14.94991836 98.51933742 18.0625 103.1875 C21.98090793 106.45283994 25.8879291 106.67965994 30.8125 106.8125 C37.95658023 107.08158023 37.95658023 107.08158023 39.0625 108.1875 C39.33936887 111.32492768 39.29423629 114.47679277 39.3125 117.625 C39.333125 118.50994141 39.35375 119.39488281 39.375 120.30664062 C39.38273438 121.57604492 39.38273438 121.57604492 39.390625 122.87109375 C39.3999707 123.65025146 39.40931641 124.42940918 39.41894531 125.23217773 C39.24250488 126.20006226 39.24250488 126.20006226 39.0625 127.1875 C31.79899562 132.02983625 19.49059582 131.08981436 11.078125 129.69140625 C2.56948872 127.35285249 -5.20563513 122.822692 -9.9375 115.1875 C-13.30481794 108.03990116 -13.40848151 101.5436378 -13.44921875 93.71875 C-13.47614555 91.80467346 -13.47614555 91.80467346 -13.50361633 89.85192871 C-13.54841839 86.485083 -13.5808182 83.11859495 -13.60705566 79.75158691 C-13.63701356 76.30561372 -13.68349087 72.85986593 -13.72851562 69.4140625 C-13.81329095 62.67197972 -13.88170303 55.92988155 -13.9375 49.1875 C-15.06929687 49.13851562 -16.20109375 49.08953125 -17.3671875 49.0390625 C-18.84898339 48.96403486 -20.330753 48.88848703 -21.8125 48.8125 C-22.55886719 48.7815625 -23.30523438 48.750625 -24.07421875 48.71875 C-29.7109375 48.4140625 -29.7109375 48.4140625 -31.9375 46.1875 C-32.19628906 44.24804688 -32.19628906 44.24804688 -32.203125 41.90625 C-32.20570313 41.06449219 -32.20828125 40.22273437 -32.2109375 39.35546875 C-32.19933594 38.03482422 -32.19933594 38.03482422 -32.1875 36.6875 C-32.19523438 35.80707031 -32.20296875 34.92664063 -32.2109375 34.01953125 C-32.20835937 33.17777344 -32.20578125 32.33601562 -32.203125 31.46875 C-32.20086914 30.69595703 -32.19861328 29.92316406 -32.19628906 29.12695312 C-31.9375 27.1875 -31.9375 27.1875 -29.9375 25.1875 C-27.20315038 24.8811141 -24.55470179 24.6761664 -21.8125 24.5625 C-20.68134766 24.50449219 -20.68134766 24.50449219 -19.52734375 24.4453125 C-17.66446816 24.35098969 -15.80101745 24.26815338 -13.9375 24.1875 C-13.91244385 23.49599854 -13.8873877 22.80449707 -13.86157227 22.09204102 C-13.74597839 18.97782134 -13.62308758 15.86393211 -13.5 12.75 C-13.46068359 11.66138672 -13.42136719 10.57277344 -13.38085938 9.45117188 C-13.33896484 8.41669922 -13.29707031 7.38222656 -13.25390625 6.31640625 C-13.21724854 5.35806885 -13.18059082 4.39973145 -13.14282227 3.41235352 C-12.62455957 -2.20349423 -4.34182513 0.00248246 0 0 Z " fill="#111112" transform="translate(646.9375,642.8125)"/>
<path d="M0 0 C1.01513672 -0.020625 2.03027344 -0.04125 3.07617188 -0.0625 C4.53700195 -0.07023438 4.53700195 -0.07023438 6.02734375 -0.078125 C6.9205835 -0.0874707 7.81382324 -0.09681641 8.73413086 -0.10644531 C11.62388761 0.33594169 12.31311206 0.93656889 14.0625 3.25 C14.43723011 5.73751926 14.43723011 5.73751926 14.4367218 8.76039124 C14.44724327 10.47872917 14.44724327 10.47872917 14.45797729 12.23178101 C14.45033356 13.48955353 14.44268982 14.74732605 14.43481445 16.04321289 C14.43724223 17.38029768 14.44096142 18.71738066 14.44587708 20.05445862 C14.45529085 23.68662758 14.44585723 27.3185273 14.43254495 30.95067525 C14.42124007 34.7480774 14.42533715 38.54546611 14.42729187 42.34288025 C14.42817505 48.71927294 14.41708871 55.09555936 14.39868164 61.47192383 C14.37750455 68.85022603 14.3740059 76.22837261 14.3802436 83.60669905 C14.38593224 90.69792304 14.38029811 97.78909208 14.36907005 104.88030815 C14.36441834 107.90141246 14.36355267 110.92248324 14.3656559 113.94359016 C14.36753541 117.49848138 14.35946117 121.05321352 14.3435955 124.60806847 C14.33730865 126.5399513 14.34086643 128.47185823 14.34466553 130.40374756 C14.33403831 132.11785576 14.33403831 132.11785576 14.32319641 133.86659241 C14.32114354 134.86376313 14.31909067 135.86093386 14.31697559 136.88832188 C14.0625 139.25 14.0625 139.25 12.0625 141.25 C9.64819336 141.49291992 9.64819336 141.49291992 6.65234375 141.48046875 C5.58048828 141.47853516 4.50863281 141.47660156 3.40429688 141.47460938 C2.28087891 141.46236328 1.15746094 141.45011719 0 141.4375 C-1.69092773 141.4365332 -1.69092773 141.4365332 -3.41601562 141.43554688 C-11.79736683 141.39013317 -11.79736683 141.39013317 -12.9375 140.25 C-13.03389184 138.45305962 -13.05937425 136.65229107 -13.05775452 134.85276794 C-13.05912918 133.68182587 -13.06050385 132.51088379 -13.06192017 131.30445862 C-13.05832489 130.00830124 -13.05472961 128.71214386 -13.05102539 127.37670898 C-13.05074352 126.00712079 -13.05090125 124.63753244 -13.0514679 123.26794434 C-13.05175588 119.53877052 -13.04585909 115.80962859 -13.03889394 112.08046222 C-13.03266047 108.18735587 -13.03205661 104.29424887 -13.03086853 100.40113831 C-13.02775519 93.02401854 -13.01954178 85.64691351 -13.00951904 78.26980025 C-12.99835797 69.87332457 -12.99284747 61.47684821 -12.98782361 53.08036697 C-12.97735916 35.80356944 -12.95975968 18.52678628 -12.9375 1.25 C-9.05869395 -0.68940303 -4.26635864 0.02158815 0 0 Z " fill="#111213" transform="translate(714.9375,629.75)"/>
<path d="M0 0 C6.43351624 3.98477303 10.38096869 10.27977257 12.9453125 17.2734375 C14.08753557 25.04055435 13.19809202 32.00357525 8.78125 38.60546875 C3.49361264 45.11240149 -2.83993759 48.7384415 -11.1875 49.671875 C-19.45884552 49.98536623 -25.55666821 48.09525209 -31.81640625 42.56640625 C-37.17645204 36.86925066 -39.79317299 31.27577768 -40.1796875 23.4609375 C-39.91385116 15.92505526 -36.66442384 9.45284848 -31.5546875 3.97265625 C-22.37715415 -3.99834793 -10.95479619 -4.96664393 0 0 Z " fill="#F3EFE7" transform="translate(617.7421875,345.6015625)"/>
<path d="M0 0 C7.04698659 4.73136932 11.26293259 10.68459399 13 19 C13.92130653 26.76314027 12.19314233 33.76403397 7.45703125 40.046875 C1.48222579 46.44552249 -4.09520135 49.20103483 -12.875 49.5625 C-20.68056551 49.30370585 -26.33462302 47.3855251 -32.09765625 42.0625 C-38.63149536 34.97858409 -39.72040925 28.42550346 -39.4375 19.02734375 C-38.93605077 12.31889324 -35.83059857 7.68457563 -31.03125 3.1328125 C-21.91870419 -4.1922724 -10.49256108 -5.33135536 0 0 Z " fill="#F3F0E7" transform="translate(432,346)"/>
<path d="M0 0 C5.5718287 3.87160156 10.30190443 8.2709008 12 15 C13.08930387 24.27464442 12.69227994 32.34338164 7 40 C2.32185379 45.22263354 -2.98394957 48.52628501 -9.98046875 49.3515625 C-18.85198455 49.74677657 -25.31744721 48.07178503 -32.06640625 42.203125 C-37.33257717 36.70607811 -39.99745532 30.61130085 -40.375 23 C-39.95197657 14.78358345 -36.90178669 8.85535816 -31.2265625 2.953125 C-22.74455724 -4.48723049 -9.8419541 -5.78214804 0 0 Z " fill="#F3F0E7" transform="translate(525,346)"/>
<path d="M0 0 C0.4757082 7.61133126 -0.6740756 13.15327887 -4.625 19.6875 C-10.23141532 25.14637807 -15.23643334 27.32752142 -23.125 27.5625 C-28.93589754 27.34286564 -32.49119648 26.68902106 -37 23 C-39.76915934 18.58253153 -39.63156366 14.05250926 -39 9 C-37.1119685 5.14184867 -35.02704151 3.81426818 -31.1171875 2.4140625 C-25.3246659 0.56300073 -19.60228324 0.44100603 -13.5625 0.3125 C-12.47517578 0.27833984 -11.38785156 0.24417969 -10.26757812 0.20898438 C-3.41374362 0 -3.41374362 0 0 0 Z " fill="#F2EEE6" transform="translate(496,726)"/>
<path d="M0 0 C0.87591797 0.00322266 1.75183594 0.00644531 2.65429688 0.00976562 C3.52634766 -0.00634766 4.39839844 -0.02246094 5.296875 -0.0390625 C6.55467773 -0.0400293 6.55467773 -0.0400293 7.83789062 -0.04101562 C8.60544678 -0.04399658 9.37300293 -0.04697754 10.16381836 -0.05004883 C12.83865967 0.4350425 13.56984705 1.17234279 15.21679688 3.32226562 C15.59152699 5.80978489 15.59152699 5.80978489 15.59101868 8.83265686 C15.60154015 10.5509948 15.60154015 10.5509948 15.61227417 12.30404663 C15.60463043 13.56181915 15.59698669 14.81959167 15.58911133 16.11547852 C15.59153911 17.45256331 15.59525829 18.78964629 15.60017395 20.12672424 C15.60958773 23.7588932 15.60015411 27.39079293 15.58684182 31.02294087 C15.57553694 34.82034303 15.57963402 38.61773174 15.58158875 42.41514587 C15.58247192 48.79153857 15.57138558 55.16782498 15.55297852 61.54418945 C15.53180143 68.92249165 15.52830278 76.30063824 15.53454047 83.67896467 C15.54022911 90.77018867 15.53459498 97.86135771 15.52336693 104.95257378 C15.51871521 107.97367809 15.51784954 110.99474886 15.51995277 114.01585579 C15.52183228 117.570747 15.51375804 121.12547915 15.49789238 124.68033409 C15.49160552 126.61221693 15.4951633 128.54412386 15.4989624 130.47601318 C15.48833519 132.19012138 15.48833519 132.19012138 15.47749329 133.93885803 C15.47544042 134.93602876 15.47338755 135.93319948 15.47127247 136.9605875 C15.21679688 139.32226562 15.21679688 139.32226562 13.21679688 141.32226562 C10.97021484 141.54931641 10.97021484 141.54931641 8.20898438 141.51757812 C7.22285156 141.51113281 6.23671875 141.5046875 5.22070312 141.49804688 C3.67189453 141.47291016 3.67189453 141.47291016 2.09179688 141.44726562 C1.05152344 141.43824219 0.01125 141.42921875 -1.06054688 141.41992188 C-3.63499405 141.39630309 -6.20898525 141.36336711 -8.78320312 141.32226562 C-8.28820312 140.33226562 -8.28820312 140.33226562 -7.78320312 139.32226562 C-1.51320313 138.99226562 4.75679687 138.66226563 11.21679688 138.32226562 C11.54679688 93.44226563 11.87679687 48.56226563 12.21679688 2.32226562 C5.28679688 2.32226562 -1.64320313 2.32226562 -8.78320312 2.32226562 C-5.96326442 -0.49767308 -3.85416153 0.03263724 0 0 Z " fill="#2B2A28" transform="translate(713.783203125,629.677734375)"/>
<path d="M0 0 C0.66 0.33 1.32 0.66 2 1 C8.93 1.33 15.86 1.66 23 2 C23 16.52 23 31.04 23 46 C22.67 46 22.34 46 22 46 C22 31.81 22 17.62 22 3 C15.07 3 8.14 3 1 3 C1 11.25 1 19.5 1 28 C0.67 28 0.34 28 0 28 C-0.33 64.63 -0.66 101.26 -1 139 C-1.33 139 -1.66 139 -2 139 C-2.04667236 121.17197024 -2.08196542 103.34395628 -2.10362434 85.51587868 C-2.11394721 77.23842962 -2.12802676 68.96101848 -2.15087891 60.68359375 C-2.17078195 53.47095953 -2.18370908 46.25835276 -2.18817699 39.04569185 C-2.19078962 35.22486053 -2.19695125 31.40410775 -2.21146011 27.58330154 C-2.22499536 23.98990937 -2.22923092 20.39662837 -2.22621536 16.80321312 C-2.22703132 14.84980734 -2.23781413 12.89641377 -2.24884033 10.94303894 C-2.246091 9.78755051 -2.24334167 8.63206207 -2.24050903 7.44155884 C-2.24235262 6.43311731 -2.24419621 5.42467579 -2.24609566 4.38567543 C-2 2 -2 2 0 0 Z " fill="#3A3937" transform="translate(320,630)"/>
<path d="M0 0 C0.33 0 0.66 0 1 0 C1.107834 2.93847653 1.18721916 5.87301151 1.25 8.8125 C1.30027344 10.06256836 1.30027344 10.06256836 1.3515625 11.33789062 C1.36445312 12.14033203 1.37734375 12.94277344 1.390625 13.76953125 C1.41157227 14.50792236 1.43251953 15.24631348 1.45410156 16.00708008 C1 18 1 18 -3 21 C-9.93 21 -16.86 21 -24 21 C-24 35.52 -24 50.04 -24 65 C-24.99 65.495 -24.99 65.495 -26 66 C-26 50.49 -26 34.98 -26 19 C-18.08 18.67 -10.16 18.34 -2 18 C-0.414131 14.828262 -0.62133555 11.36486178 -0.4375 7.875 C-0.39431641 7.12089844 -0.35113281 6.36679687 -0.30664062 5.58984375 C-0.2005168 3.72678112 -0.09974999 1.86341476 0 0 Z " fill="#FDFCF8" transform="translate(606,672)"/>
<path d="M0 0 C7.92 0 15.84 0 24 0 C23.67 0.66 23.34 1.32 23 2 C16.07 2 9.14 2 2 2 C2.33 18.83 2.66 35.66 3 53 C1 52 1 52 0 49 C-0.08722452 47.38904142 -0.11767272 45.77468984 -0.11352539 44.16137695 C-0.11344986 43.1805867 -0.11337433 42.19979645 -0.11329651 41.18928528 C-0.10813522 40.13295395 -0.10297394 39.07662262 -0.09765625 37.98828125 C-0.0962413 36.90491989 -0.09482635 35.82155853 -0.09336853 34.70536804 C-0.08776559 31.24105075 -0.07521258 27.7767978 -0.0625 24.3125 C-0.05748538 21.96549572 -0.05292241 19.61849044 -0.04882812 17.27148438 C-0.03864559 11.51427811 -0.01907063 5.75721118 0 0 Z " fill="#FDFCF9" transform="translate(661,691)"/>
<path d="M0 0 C0.33 0.66 0.66 1.32 1 2 C1.65073486 1.98952637 2.30146973 1.97905273 2.97192383 1.96826172 C5.9187433 1.92670165 8.86550111 1.90067392 11.8125 1.875 C13.34874023 1.84986328 13.34874023 1.84986328 14.91601562 1.82421875 C15.89892578 1.81777344 16.88183594 1.81132813 17.89453125 1.8046875 C18.80050049 1.79421387 19.70646973 1.78374023 20.63989258 1.77294922 C23 2 23 2 26 4 C26.34057617 6.06298828 26.34057617 6.06298828 26.29296875 8.5703125 C26.28330078 9.46621094 26.27363281 10.36210938 26.26367188 11.28515625 C26.23853516 12.22230469 26.21339844 13.15945313 26.1875 14.125 C26.16719727 15.54232422 26.16719727 15.54232422 26.14648438 16.98828125 C26.11106306 19.32608779 26.06167271 21.66276237 26 24 C24.35 24.33 22.7 24.66 21 25 C21.66 24.67 22.32 24.34 23 24 C23 18.06 23 12.12 23 6 C15.74 5.67 8.48 5.34 1 5 C0.67 3.35 0.34 1.7 0 0 Z " fill="#1B1A1A" transform="translate(579,666)"/>
<path d="M0 0 C0.33 0 0.66 0 1 0 C1.02505615 1.25135742 1.0501123 2.50271484 1.07592773 3.79199219 C1.17012563 8.43630143 1.27031619 13.08046543 1.37231445 17.72460938 C1.41561644 19.73434043 1.45729488 21.74410715 1.49731445 23.75390625 C1.55513165 26.64333848 1.61879324 29.53259198 1.68359375 32.421875 C1.70030624 33.31992859 1.71701874 34.21798218 1.73423767 35.14324951 C1.75418289 35.98381897 1.77412811 36.82438843 1.79467773 37.69042969 C1.81022202 38.42767273 1.8257663 39.16491577 1.84178162 39.92449951 C2.00380224 42.04987759 2.45587703 43.94351351 3 46 C3.07818636 47.51395696 3.10789909 49.03093507 3.09765625 50.546875 C3.09282227 51.81337891 3.09282227 51.81337891 3.08789062 53.10546875 C3.07951172 53.97816406 3.07113281 54.85085938 3.0625 55.75 C3.05798828 56.63816406 3.05347656 57.52632812 3.04882812 58.44140625 C3.037074 60.62767329 3.02064249 62.81380179 3 65 C1.02 65.99 1.02 65.99 -1 67 C-0.67 44.89 -0.34 22.78 0 0 Z " fill="#1F2020" transform="translate(520,704)"/>
<path d="M0 0 C0.33 0 0.66 0 1 0 C1.02692484 2.29160319 1.04636124 4.58329546 1.0625 6.875 C1.07410156 8.15117188 1.08570313 9.42734375 1.09765625 10.7421875 C1 14 1 14 0 16 C-4.95 16 -9.9 16 -15 16 C-14.67 21.94 -14.34 27.88 -14 34 C-15.32 34 -16.64 34 -18 34 C-18.05390357 31.06225537 -18.0936255 28.12549768 -18.125 25.1875 C-18.14175781 24.35412109 -18.15851562 23.52074219 -18.17578125 22.66210938 C-18.18222656 21.85966797 -18.18867187 21.05722656 -18.1953125 20.23046875 C-18.20578613 19.49207764 -18.21625977 18.75368652 -18.22705078 17.99291992 C-18 16 -18 16 -16 13 C-13.2114711 12.77892213 -10.65346819 12.71892465 -7.875 12.8125 C-7.12089844 12.82603516 -6.36679687 12.83957031 -5.58984375 12.85351562 C-3.72625873 12.88890015 -1.86304022 12.94270833 0 13 C0 8.71 0 4.42 0 0 Z " fill="#1E1E1E" transform="translate(552,655)"/>
<path d="M0 0 C1.54571278 2.31856917 2.79618552 4.50638429 4 7 C4.33 7 4.66 7 5 7 C5.1953125 13.0546875 5.1953125 13.0546875 5 15 C3 17 3 17 0.56982422 17.22705078 C-0.4251709 17.21657715 -1.42016602 17.20610352 -2.4453125 17.1953125 C-3.52167969 17.18886719 -4.59804688 17.18242188 -5.70703125 17.17578125 C-6.83496094 17.15902344 -7.96289062 17.14226563 -9.125 17.125 C-10.26066406 17.11597656 -11.39632813 17.10695313 -12.56640625 17.09765625 C-15.37781299 17.07403098 -18.18880298 17.04109013 -21 17 C-21.66 15.68 -22.32 14.36 -23 13 C-14.75 13.33 -6.5 13.66 2 14 C1.34 10.7 0.68 7.4 0 4 C0 2.68 0 1.36 0 0 Z " fill="#262525" transform="translate(298,665)"/>
<path d="M0 0 C0.98291016 0.00644531 1.96582031 0.01289062 2.97851562 0.01953125 C4.00267578 0.03628906 5.02683594 0.05304687 6.08203125 0.0703125 C7.11779297 0.07933594 8.15355469 0.08835937 9.22070312 0.09765625 C11.7788781 0.1212339 14.33658873 0.1541422 16.89453125 0.1953125 C16.89453125 1.1853125 16.89453125 2.1753125 16.89453125 3.1953125 C9.63453125 3.1953125 2.37453125 3.1953125 -5.10546875 3.1953125 C-4.44546875 6.1653125 -3.78546875 9.1353125 -3.10546875 12.1953125 C-4.09546875 12.1953125 -5.08546875 12.1953125 -6.10546875 12.1953125 C-7.68623533 8.73738561 -8.62126513 6.0122057 -8.10546875 2.1953125 C-4.80258539 -0.00660974 -3.83084148 -0.04428718 0 0 Z " fill="#292928" transform="translate(750.10546875,667.8046875)"/>
<path d="M0 0 C0.99 0 1.98 0 3 0 C2.67 24.42 2.34 48.84 2 74 C-2.62 74 -7.24 74 -12 74 C-12 73.67 -12 73.34 -12 73 C-6.94359054 72.2286833 -4.14808788 71.97038242 1 73 C0.67 48.91 0.34 24.82 0 0 Z " fill="#1B1B1C" transform="translate(411,695)"/>
<path d="M0 0 C0.99 0.495 0.99 0.495 2 1 C2.1680197 7.37189886 2.32794807 13.74396347 2.48217773 20.11621094 C2.53563881 22.28520334 2.59097127 24.45415044 2.64819336 26.62304688 C2.72998976 29.73557769 2.80511587 32.8482079 2.87890625 35.9609375 C2.91945885 37.42193375 2.91945885 37.42193375 2.96083069 38.91244507 C2.98092697 39.81322784 3.00102325 40.71401062 3.02172852 41.64208984 C3.04171402 42.43706879 3.06169952 43.23204773 3.08229065 44.05111694 C3 46 3 46 2 48 C1.34 48 0.68 48 0 48 C0 32.16 0 16.32 0 0 Z " fill="#F9F8F3" transform="translate(345,631)"/>
<path d="M0 0 C2.19277032 0.05299747 4.38484876 0.14817316 6.57421875 0.28125 C8.25741211 0.33539062 8.25741211 0.33539062 9.97460938 0.390625 C12.74046496 0.48478179 15.49934116 0.61612339 18.26171875 0.78125 C19.26171875 3.78125 19.26171875 3.78125 18.32421875 5.96875 C17.97359375 6.566875 17.62296875 7.165 17.26171875 7.78125 C17.26171875 6.46125 17.26171875 5.14125 17.26171875 3.78125 C9.34171875 3.78125 1.42171875 3.78125 -6.73828125 3.78125 C-7.39828125 5.76125 -8.05828125 7.74125 -8.73828125 9.78125 C-9.39828125 9.45125 -10.05828125 9.12125 -10.73828125 8.78125 C-8.51136168 2.94370983 -6.46484864 0.25452968 0 0 Z " fill="#1D1D1C" transform="translate(282.73828125,726.21875)"/>
<path d="M0 0 C0.66 0.33 1.32 0.66 2 1 C1.67 1.33 1.34 1.66 1 2 C0.85469013 3.69428307 0.77283477 5.39410742 0.71875 7.09375 C0.68136719 8.12371094 0.64398437 9.15367187 0.60546875 10.21484375 C0.57066406 11.29894531 0.53585937 12.38304687 0.5 13.5 C0.43143859 15.63556094 0.35874988 17.77099476 0.28125 19.90625 C0.23581055 21.33420898 0.23581055 21.33420898 0.18945312 22.79101562 C0 25 0 25 -1 26 C-3.01964199 26.07244053 -5.04167124 26.08377188 -7.0625 26.0625 C-8.16722656 26.05347656 -9.27195312 26.04445313 -10.41015625 26.03515625 C-11.69212891 26.01775391 -11.69212891 26.01775391 -13 26 C-13 25.67 -13 25.34 -13 25 C-10.03 24.67 -7.06 24.34 -4 24 C-3.98541748 23.34402832 -3.97083496 22.68805664 -3.95581055 22.01220703 C-3.88148586 19.04919969 -3.78477631 16.08733883 -3.6875 13.125 C-3.66494141 12.09246094 -3.64238281 11.05992187 -3.61914062 9.99609375 C-3.58369141 9.00996094 -3.54824219 8.02382813 -3.51171875 7.0078125 C-3.48553467 6.09660645 -3.45935059 5.18540039 -3.43237305 4.24658203 C-3.28968994 3.50520996 -3.14700684 2.76383789 -3 2 C-2.01 1.34 -1.02 0.68 0 0 Z " fill="#E2E0DB" transform="translate(634,642)"/>
<path d="M0 0 C0.33 0.66 0.66 1.32 1 2 C-0.4828679 5.38490515 -2.16729681 8.64273664 -3.84765625 11.93359375 C-4.22792969 12.94550781 -4.60820312 13.95742188 -5 15 C-4.01 16.485 -4.01 16.485 -3 18 C-3 19.32 -3 20.64 -3 22 C-2.01 22 -1.02 22 0 22 C-1.20381448 24.49361571 -2.45428722 26.68143083 -4 29 C-4 28.34 -4 27.68 -4 27 C-4.66 27 -5.32 27 -6 27 C-6 26.34 -6 25.68 -6 25 C-5.34 25 -4.68 25 -4 25 C-4.33 24.34 -4.66 23.68 -5 23 C-5.66 23 -6.32 23 -7 23 C-7.33 22.34 -7.66 21.68 -8 21 C-8.66 21.66 -9.32 22.32 -10 23 C-9.35592303 17.96814871 -7.1775132 13.76491374 -5 9.25 C-4.63132812 8.47011719 -4.26265625 7.69023437 -3.8828125 6.88671875 C-1.14835963 1.14835963 -1.14835963 1.14835963 0 0 Z " fill="#1C6CCD" transform="translate(308,278)"/>
<path d="M0 0 C0 0.99 0 1.98 0 3 C-2.62506802 3.02690844 -5.24986173 3.04679404 -7.875 3.0625 C-8.62136719 3.07087891 -9.36773437 3.07925781 -10.13671875 3.08789062 C-15.7734375 3.11328125 -15.7734375 3.11328125 -18 2 C-18 2.66 -18 3.32 -18 4 C-24.625 5.25 -24.625 5.25 -28 3 C-18.63181742 -0.39925415 -9.80706267 -0.31042285 0 0 Z " fill="#232322" transform="translate(486,666)"/>
<path d="M0 0 C0.33 0 0.66 0 1 0 C1.33 2.97 1.66 5.94 2 9 C9.26 9.33 16.52 9.66 24 10 C24 10.99 24 11.98 24 13 C20.39610336 13.11601004 16.79268533 13.18718408 13.1875 13.25 C12.16333984 13.28351562 11.13917969 13.31703125 10.08398438 13.3515625 C9.10107422 13.36445312 8.11816406 13.37734375 7.10546875 13.390625 C6.19949951 13.41157227 5.29353027 13.43251953 4.36010742 13.45410156 C2 13 2 13 0.23168945 11.20214844 C-1.47508285 8.15059518 -1.80739066 5.4669681 -2 2 C-1.34 1.34 -0.68 0.68 0 0 Z " fill="#CDCBC5" transform="translate(496,761)"/>
<path d="M0 0 C5.94 0 11.88 0 18 0 C18 0.33 18 0.66 18 1 C13.05 1 8.1 1 3 1 C3.185625 3.0625 3.37125 5.125 3.5625 7.25 C3.93017724 11.3353027 4.00496852 13.98012591 3 18 C7.62 18 12.24 18 17 18 C17 18.33 17 18.66 17 19 C14.52076199 19.02685095 12.0418116 19.04676547 9.5625 19.0625 C8.85544922 19.07087891 8.14839844 19.07925781 7.41992188 19.08789062 C5.61306441 19.09653588 3.80612397 19.05220011 2 19 C1 18 1 18 0.9375 14.7265625 C0.96164239 12.66641187 1.00034215 10.60679779 1.0390625 8.546875 C1.07571943 5.40659785 1.00167721 3.00503164 0 0 Z " fill="#18191A" transform="translate(615,670)"/>
<path d="M0 0 C0.33 0 0.66 0 1 0 C0.99777939 0.59468582 0.99555878 1.18937164 0.99327087 1.80207825 C0.97117556 7.98238526 0.95607558 14.16268108 0.94506836 20.34301758 C0.94003449 22.6506394 0.93320695 24.95825803 0.92456055 27.26586914 C0.91245365 30.57959786 0.90676227 33.89328448 0.90234375 37.20703125 C0.89718246 38.2414888 0.89202118 39.27594635 0.88670349 40.3417511 C0.88662796 41.3025206 0.88655243 42.2632901 0.88647461 43.25317383 C0.884254 44.09922684 0.88203339 44.94527985 0.87974548 45.81697083 C0.91375879 48.18055791 0.91375879 48.18055791 2 51 C1.01 51.495 1.01 51.495 0 52 C-0.99 48.535 -0.99 48.535 -2 45 C-1.505 44.505 -1.505 44.505 -1 44 C-0.87802192 42.61949142 -0.82231101 41.23302353 -0.79467773 39.84741211 C-0.77473251 38.96657455 -0.75478729 38.085737 -0.73423767 37.1782074 C-0.71752518 36.22092239 -0.70081268 35.26363739 -0.68359375 34.27734375 C-0.66281265 33.30213272 -0.64203156 32.32692169 -0.62062073 31.32215881 C-0.55501588 28.1940137 -0.49618972 25.06578178 -0.4375 21.9375 C-0.39432517 19.8222565 -0.35071123 17.70702191 -0.30664062 15.59179688 C-0.19932345 10.39462413 -0.0975778 5.19736423 0 0 Z " fill="#EAE6DE" transform="translate(582,693)"/>
<path d="M0 0 C0.99 0.33 1.98 0.66 3 1 C2.34 3.31 1.68 5.62 1 8 C0.34 8 -0.32 8 -1 8 C-1 15.92 -1 23.84 -1 32 C-1.33 32 -1.66 32 -2 32 C-2 27.71 -2 23.42 -2 19 C-2.66 19 -3.32 19 -4 19 C-3.59060025 12.23784552 -2.43046191 6.32837252 0 0 Z " fill="#E7E4DF" transform="translate(209,679)"/>
<path d="M0 0 C2.29141286 -0.05384521 4.58318188 -0.09272087 6.875 -0.125 C8.78925781 -0.15980469 8.78925781 -0.15980469 10.7421875 -0.1953125 C14 0 14 0 16 2 C16.14517744 4.9093558 16.18630796 7.719946 16.125 10.625 C16.11597656 11.42679688 16.10695313 12.22859375 16.09765625 13.0546875 C16.07406223 15.03658523 16.03819065 17.01832981 16 19 C15.01 19 14.02 19 13 19 C12.95101562 17.85660156 12.90203125 16.71320312 12.8515625 15.53515625 C12.77654811 14.04424527 12.70099972 12.55336108 12.625 11.0625 C12.57859375 9.93038086 12.57859375 9.93038086 12.53125 8.77539062 C12.4273685 6.84492605 12.22104386 4.92057919 12 3 C9.56612247 1.78306124 7.58161154 1.68040104 4.875 1.4375 C3.96492187 1.35371094 3.05484375 1.26992188 2.1171875 1.18359375 C1.41851563 1.12300781 0.71984375 1.06242188 0 1 C0 0.67 0 0.34 0 0 Z " fill="#2B2A29" transform="translate(590,750)"/>
<path d="M0 0 C3.81248426 -0.02887236 7.6249407 -0.04675492 11.4375 -0.0625 C12.52611328 -0.07087891 13.61472656 -0.07925781 14.73632812 -0.08789062 C15.77080078 -0.09111328 16.80527344 -0.09433594 17.87109375 -0.09765625 C18.82943115 -0.10289307 19.78776855 -0.10812988 20.77514648 -0.11352539 C23 0 23 0 24 1 C24.15620555 2.41327947 24.25056173 3.8335459 24.31640625 5.25390625 C24.35830078 6.10791016 24.40019531 6.96191406 24.44335938 7.84179688 C24.48267578 8.73962891 24.52199219 9.63746094 24.5625 10.5625 C24.60568359 11.46419922 24.64886719 12.36589844 24.69335938 13.29492188 C24.79978142 15.52978485 24.90179988 17.76476308 25 20 C23.35 20.33 21.7 20.66 20 21 C20.66 20.67 21.32 20.34 22 20 C22 14.06 22 8.12 22 2 C14.74 1.67 7.48 1.34 0 1 C0 0.67 0 0.34 0 0 Z " fill="#202021" transform="translate(580,670)"/>
<path d="M0 0 C0.33 0 0.66 0 1 0 C1 13.2 1 26.4 1 40 C1.99 40.33 2.98 40.66 4 41 C3.67 41.66 3.34 42.32 3 43 C2.01 43 1.02 43 0 43 C0 28.81 0 14.62 0 0 Z " fill="#EAE6DD" transform="translate(347,633)"/>
<path d="M0 0 C0.66 0.66 1.32 1.32 2 2 C0 3 0 3 -3.125 2.8125 C-7.41836164 3.02024331 -9.66602402 4.10178612 -13.30078125 6.22265625 C-13.86152344 6.47917969 -14.42226563 6.73570312 -15 7 C-15.66 6.67 -16.32 6.34 -17 6 C-17 5.34 -17 4.68 -17 4 C-5.02477701 -0.77304262 -5.02477701 -0.77304262 0 0 Z " fill="#1B1B1B" transform="translate(372,667)"/>
<path d="M0 0 C-0.33 0.66 -0.66 1.32 -1 2 C-5.46648561 3.06632314 -9.80008379 3.10565959 -14.375 3.0625 C-16.24285156 3.04896484 -16.24285156 3.04896484 -18.1484375 3.03515625 C-19.55996094 3.01775391 -19.55996094 3.01775391 -21 3 C-21.33 2.34 -21.66 1.68 -22 1 C-14.63512596 0.00137301 -7.42686315 -0.10331031 0 0 Z " fill="#0B0C0C" transform="translate(260,771)"/>
<path d="M0 0 C5.61 0 11.22 0 17 0 C16.67 0.99 16.34 1.98 16 3 C10.72 3 5.44 3 0 3 C0 2.01 0 1.02 0 0 Z " fill="#1E1E1E" transform="translate(661,770)"/>
<path d="M0 0 C0.66 -0.33 1.32 -0.66 2 -1 C0.7874262 2.72433382 -0.50859979 6.37802806 -2 10 C-2.93423645 6.98968256 -3.04449911 6.13349732 -2 3 C-3.65 3.33 -5.3 3.66 -7 4 C-6.625 2.0625 -6.625 2.0625 -6 0 C-3.4791665 -1.26041675 -2.64903564 -0.66225891 0 0 Z " fill="#1E6DCD" transform="translate(395,354)"/>
<path d="M0 0 C0.66 0 1.32 0 2 0 C1.48540897 3.77366756 0.73571995 6.6370426 -1 10 C-1.37668344 11.65740715 -1.72057545 13.32345271 -2 15 C-2.99 15 -3.98 15 -5 15 C-4.54705135 13.24859857 -4.08741252 11.49892656 -3.625 9.75 C-3.36976563 8.77546875 -3.11453125 7.8009375 -2.8515625 6.796875 C-2.10401491 4.34162697 -1.22876183 2.24382595 0 0 Z " fill="#1A1A1A" transform="translate(803,715)"/>
<path d="M0 0 C1.64528614 3.12752591 2.91702499 6.3053057 4.125 9.625 C4.47820313 10.58664062 4.83140625 11.54828125 5.1953125 12.5390625 C6 15 6 15 6 17 C5.01 17 4.02 17 3 17 C2.66269158 15.56342755 2.33030409 14.12569907 2 12.6875 C1.814375 11.88699219 1.62875 11.08648438 1.4375 10.26171875 C1 8 1 8 1 5 C0.34 5 -0.32 5 -1 5 C-0.67 3.35 -0.34 1.7 0 0 Z " fill="#1A1A19" transform="translate(780,700)"/>
<path d="M0 0 C1.60379341 -0.05416188 3.20811406 -0.09286638 4.8125 -0.125 C5.70582031 -0.14820313 6.59914062 -0.17140625 7.51953125 -0.1953125 C10 0 10 0 13 2 C12 3 12 3 9.27734375 3.09765625 C7.62412109 3.08025391 7.62412109 3.08025391 5.9375 3.0625 C4.28041016 3.04896484 4.28041016 3.04896484 2.58984375 3.03515625 C1.73519531 3.02355469 0.88054687 3.01195312 0 3 C0 2.01 0 1.02 0 0 Z " fill="#E2E0DA" transform="translate(238,656)"/>
<path d="M0 0 C1.65 0.33 3.3 0.66 5 1 C4.67 1.66 4.34 2.32 4 3 C6.31 3.66 8.62 4.32 11 5 C11 5.33 11 5.66 11 6 C3.08 6.495 3.08 6.495 -5 7 C-2 5 -2 5 1 4 C0.67 2.68 0.34 1.36 0 0 Z " fill="#1567CC" transform="translate(414,337)"/>
<path d="M0 0 C7.08350383 3.20901948 13.041169 7.00552088 19 12 C15.61584489 12 15.155049 11.58310474 12.625 9.5625 C9.77815229 7.42283102 7.6231381 6.32937619 4 6 C4 5.34 4 4.68 4 4 C2.68 3.34 1.36 2.68 0 2 C0 1.34 0 0.68 0 0 Z " fill="#1764CD" transform="translate(658,225)"/>
<path d="M0 0 C0.66 0 1.32 0 2 0 C2 5.94 2 11.88 2 18 C1.67 18 1.34 18 1 18 C0.6392073 15.18820232 0.2860722 12.37581501 -0.0625 9.5625 C-0.2181543 8.35883789 -0.2181543 8.35883789 -0.37695312 7.13085938 C-0.62644343 5.09192132 -0.81780318 3.04604939 -1 1 C-0.67 0.67 -0.34 0.34 0 0 Z " fill="#181919" transform="translate(431,733)"/>
<path d="M0 0 C1.485 0.99 1.485 0.99 3 2 C3.29296875 4.1640625 3.29296875 4.1640625 3.1875 6.625 C3.16042969 7.44226563 3.13335938 8.25953125 3.10546875 9.1015625 C3.07066406 9.72804688 3.03585937 10.35453125 3 11 C2.01 11 1.02 11 0 11 C0 7.37 0 3.74 0 0 Z " fill="#212121" transform="translate(778,767)"/>
<path d="M0 0 C1.91302307 3.26613695 2.35674661 5.99445248 2.625 9.75 C2.69976562 10.73484375 2.77453125 11.7196875 2.8515625 12.734375 C2.92503906 13.85585938 2.92503906 13.85585938 3 15 C1 14 1 14 -0.1875 12 C-1.31458189 7.83846688 -0.67871306 4.20985535 0 0 Z " fill="#1A1A19" transform="translate(204,706)"/>
<path d="M0 0 C0.33 0 0.66 0 1 0 C1 3.3 1 6.6 1 10 C-1.475 9.01 -1.475 9.01 -4 8 C-4 6.02 -4 4.04 -4 2 C-3.01 1.67 -2.02 1.34 -1 1 C-1 2.32 -1 3.64 -1 5 C-0.67 3.35 -0.34 1.7 0 0 Z " fill="#1968CC" transform="translate(484,363)"/>
<path d="M0 0 C5.44876003 1.72066106 10.71169451 3.84705349 16 6 C14.25 7.125 14.25 7.125 12 8 C10.015625 7.28515625 10.015625 7.28515625 8 6 C7.29359375 5.58621094 6.5871875 5.17242188 5.859375 4.74609375 C5.16328125 4.31425781 4.4671875 3.88242187 3.75 3.4375 C3.04359375 3.00308594 2.3371875 2.56867187 1.609375 2.12109375 C1.07828125 1.75113281 0.5471875 1.38117187 0 1 C0 0.67 0 0.34 0 0 Z " fill="#18191A" transform="translate(210,763)"/>
<path d="M0 0 C0.66 0.66 1.32 1.32 2 2 C1.57469657 5.82773086 0.26430036 9.3756723 -1 13 C-3 10 -3 10 -2.5390625 7.51953125 C-2.23742187 6.62621094 -1.93578125 5.73289062 -1.625 4.8125 C-1.32851563 3.91144531 -1.03203125 3.01039063 -0.7265625 2.08203125 C-0.48679687 1.39496094 -0.24703125 0.70789063 0 0 Z " fill="#1A1A1A" transform="translate(823,724)"/>
<path d="M0 0 C0.99 0 1.98 0 3 0 C3 3.96 3 7.92 3 12 C2.01 12.495 2.01 12.495 1 13 C0.1276588 10.00519083 -0.10829766 7.36424089 -0.0625 4.25 C-0.05347656 3.45078125 -0.04445313 2.6515625 -0.03515625 1.828125 C-0.02355469 1.22484375 -0.01195312 0.6215625 0 0 Z " fill="#EBE9E4" transform="translate(385,709)"/>
<path d="M0 0 C5.53846154 0.61538462 5.53846154 0.61538462 7.875 2.5625 C8.431875 3.2740625 8.431875 3.2740625 9 4 C8.67 4.66 8.34 5.32 8 6 C4.7 5.01 1.4 4.02 -2 3 C-1.34 2.01 -0.68 1.02 0 0 Z " fill="#E5E3DE" transform="translate(492,665)"/>
<path d="M0 0 C-2.9366647 3.1391933 -4.79857974 4.90494731 -9.26171875 5.09765625 C-10.06222656 5.08605469 -10.86273438 5.07445312 -11.6875 5.0625 C-12.89986328 5.04896484 -12.89986328 5.04896484 -14.13671875 5.03515625 C-15.05904297 5.01775391 -15.05904297 5.01775391 -16 5 C-16 4.67 -16 4.34 -16 4 C-13.36 4 -10.72 4 -8 4 C-8 3.01 -8 2.02 -8 1 C-5.07175348 0.02391783 -3.04386724 -0.08226668 0 0 Z " fill="#1361CB" transform="translate(381,576)"/>
<path d="M0 0 C0.99 0 1.98 0 3 0 C2.67 6.27 2.34 12.54 2 19 C1.67 19 1.34 19 1 19 C0.67 12.73 0.34 6.46 0 0 Z " fill="#222223" transform="translate(411,695)"/>
<path d="M0 0 C0.05399736 1.45792884 0.09279177 2.91642712 0.125 4.375 C0.14820313 5.18710937 0.17140625 5.99921875 0.1953125 6.8359375 C0 9 0 9 -2 11 C-2 8.03 -2 5.06 -2 2 C-3.65 2 -5.3 2 -7 2 C-7 1.67 -7 1.34 -7 1 C-2.25 0 -2.25 0 0 0 Z " fill="#F7F6F4" transform="translate(496,726)"/>
<path d="M0 0 C0.66 0.66 1.32 1.32 2 2 C1.67 2.66 1.34 3.32 1 4 C-3.62 4 -8.24 4 -13 4 C-13 3.67 -13 3.34 -13 3 C-10.36 2.67 -7.72 2.34 -5 2 C-5 1.67 -5 1.34 -5 1 C-2.625 0.375 -2.625 0.375 0 0 Z " fill="#E6E1D9" transform="translate(458,702)"/>
<path d="M0 0 C0.99 0 1.98 0 3 0 C3.33 2.97 3.66 5.94 4 9 C3.01 9 2.02 9 1 9 C0.67 6.03 0.34 3.06 0 0 Z " fill="#1F1F1F" transform="translate(518,692)"/>
<path d="M0 0 C0.33 0.66 0.66 1.32 1 2 C3.01669827 3.13350534 3.01669827 3.13350534 5 4 C4.67 4.33 4.34 4.66 4 5 C3.76636119 6.84891946 3.58696365 8.70488031 3.4375 10.5625 C3.35371094 11.57441406 3.26992188 12.58632813 3.18359375 13.62890625 C3.12300781 14.41136719 3.06242188 15.19382812 3 16 C2.67 16 2.34 16 2 16 C1.34 10.72 0.68 5.44 0 0 Z " fill="#1160CA" transform="translate(629,358)"/>
<path d="M0 0 C0.33 0 0.66 0 1 0 C1.08096803 1.45742463 1.13917774 2.91612807 1.1875 4.375 C1.22230469 5.18710937 1.25710938 5.99921875 1.29296875 6.8359375 C1.19628906 7.55007813 1.09960938 8.26421875 1 9 C0.01 9.66 -0.98 10.32 -2 11 C-2.66 10.67 -3.32 10.34 -4 10 C-2.85408232 6.56224696 -1.44249373 3.3240073 0 0 Z " fill="#1E1E1D" transform="translate(797,731)"/>
<path d="M0 0 C-3.3 2.31 -6.6 4.62 -10 7 C-10.66 6.67 -11.32 6.34 -12 6 C-4.43243243 -2.21621622 -4.43243243 -2.21621622 0 0 Z " fill="#1A67CC" transform="translate(433,541)"/>
<path d="M0 0 C-3.63195496 2.42130331 -5.38349348 2.21022785 -9.6875 2.125 C-10.86699219 2.10695313 -12.04648437 2.08890625 -13.26171875 2.0703125 C-14.16535156 2.04710937 -15.06898438 2.02390625 -16 2 C-16 1.67 -16 1.34 -16 1 C-5.62642369 -1.48063781 -5.62642369 -1.48063781 0 0 Z " fill="#E4EAE7" transform="translate(626,527)"/>
<path d="M0 0 C0.33 0 0.66 0 1 0 C1.34833144 4.87664009 0.41685712 7.77050005 -2 12 C-2.33 12 -2.66 12 -3 12 C-2.14285714 3.42857143 -2.14285714 3.42857143 0 0 Z " fill="#1D6ACC" transform="translate(297,302)"/>
<path d="M0 0 C0.66 0.66 1.32 1.32 2 2 C1.7578125 4.1640625 1.7578125 4.1640625 1.125 6.625 C0.92132812 7.44226563 0.71765625 8.25953125 0.5078125 9.1015625 C0.34023438 9.72804688 0.17265625 10.35453125 0 11 C-0.66 10.34 -1.32 9.68 -2 9 C-1.7578125 6.8359375 -1.7578125 6.8359375 -1.125 4.375 C-0.92132812 3.55773437 -0.71765625 2.74046875 -0.5078125 1.8984375 C-0.34023438 1.27195312 -0.17265625 0.64546875 0 0 Z " fill="#EBE8E2" transform="translate(806,696)"/>
<path d="M0 0 C0.99 0.33 1.98 0.66 3 1 C4.89212737 1.22179785 6.78884472 1.40614015 8.6875 1.5625 C9.68136719 1.64628906 10.67523438 1.73007812 11.69921875 1.81640625 C12.83810547 1.90728516 12.83810547 1.90728516 14 2 C14 2.33 14 2.66 14 3 C9.38 3.33 4.76 3.66 0 4 C0 2.68 0 1.36 0 0 Z " fill="#1D1D1E" transform="translate(437,698)"/>
<path d="M0 0 C3.93673644 1.31224548 6.22719294 2.91910327 9 6 C8.01 6.495 8.01 6.495 7 7 C7 6.34 7 5.68 7 5 C6.401875 4.855625 5.80375 4.71125 5.1875 4.5625 C3.43849596 4.1127561 1.71322977 3.57107659 0 3 C0 2.01 0 1.02 0 0 Z " fill="#E2E1DD" transform="translate(374,692)"/>
<path d="M0 0 C2.31 0.66 4.62 1.32 7 2 C6.67 2.99 6.34 3.98 6 5 C3.69 4.34 1.38 3.68 -1 3 C-0.67 2.01 -0.34 1.02 0 0 Z " fill="#1C1C1C" transform="translate(446,767)"/>
<path d="M0 0 C0.99 0.33 1.98 0.66 3 1 C3.33 2.98 3.66 4.96 4 7 C3.01 7 2.02 7 1 7 C0.67 4.69 0.34 2.38 0 0 Z " fill="#E3E1DC" transform="translate(175,718)"/>
<path d="M0 0 C0.33 0 0.66 0 1 0 C1.33 3.63 1.66 7.26 2 11 C1.01 11.33 0.02 11.66 -1 12 C-0.67 8.04 -0.34 4.08 0 0 Z " fill="#EAE9E5" transform="translate(175,705)"/>
<path d="M0 0 C0.99 0 1.98 0 3 0 C3.33 0.99 3.66 1.98 4 3 C1.03 5.475 1.03 5.475 -2 8 C-1.47731534 5.23723823 -0.89130413 2.6739124 0 0 Z " fill="#1E6BCD" transform="translate(300,293)"/>
<path d="M0 0 C2.97 0.495 2.97 0.495 6 1 C5.67 1.66 5.34 2.32 5 3 C1.37 3 -2.26 3 -6 3 C-6 2.67 -6 2.34 -6 2 C-4.02 2 -2.04 2 0 2 C0 1.34 0 0.68 0 0 Z " fill="#090A0A" transform="translate(678,769)"/>
<path d="M0 0 C2.5625 2.1875 2.5625 2.1875 5 5 C4.8125 7.8125 4.8125 7.8125 4 10 C3.566875 9.1028125 3.566875 9.1028125 3.125 8.1875 C1.95257974 5.80672208 1.95257974 5.80672208 0 3 C0 2.01 0 1.02 0 0 Z " fill="#1B1C1C" transform="translate(788,730)"/>
<path d="M0 0 C0.99 0.33 1.98 0.66 3 1 C1.68 3.31 0.36 5.62 -1 8 C-1.66 8 -2.32 8 -3 8 C-2.67 6.02 -2.34 4.04 -2 2 C-1.34 2 -0.68 2 0 2 C0 1.34 0 0.68 0 0 Z " fill="#E5E4E1" transform="translate(274,727)"/>
<path d="M0 0 C0 1.65 0 3.3 0 5 C-0.99 5.33 -1.98 5.66 -3 6 C-3 6.66 -3 7.32 -3 8 C-3.66 7.67 -4.32 7.34 -5 7 C-4.39816251 4.97954558 -3.72693904 2.97888961 -3 1 C-1 0 -1 0 0 0 Z " fill="#1B1C1C" transform="translate(498,734)"/>
<path d="M0 0 C0.66 0 1.32 0 2 0 C1.67 2.31 1.34 4.62 1 7 C0.01 7 -0.98 7 -2 7 C-1.125 1.125 -1.125 1.125 0 0 Z " fill="#1B1B1C" transform="translate(837,687)"/>
<path d="M0 0 C0.33 0 0.66 0 1 0 C1.06058594 0.61488281 1.12117187 1.22976563 1.18359375 1.86328125 C1.26738281 2.67152344 1.35117187 3.47976563 1.4375 4.3125 C1.51871094 5.11300781 1.59992187 5.91351563 1.68359375 6.73828125 C1.95265693 9.16087179 1.95265693 9.16087179 3 12 C2.01 12.33 1.02 12.66 0 13 C0 8.71 0 4.42 0 0 Z " fill="#4284D2" transform="translate(537,364)"/>
<path d="M0 0 C0.99 0 1.98 0 3 0 C2.25 5.75 2.25 5.75 0 8 C-0.79953138 4.71303767 -1.09658936 3.28976808 0 0 Z " fill="#E9E6DF" transform="translate(827,720)"/>
<path d="M0 0 C0.66 0.33 1.32 0.66 2 1 C1.67 2.98 1.34 4.96 1 7 C0.01 7 -0.98 7 -2 7 C-1.125 1.125 -1.125 1.125 0 0 Z " fill="#1C1C1C" transform="translate(834,695)"/>
<path d="M0 0 C2.64 0 5.28 0 8 0 C7.01 1.485 7.01 1.485 6 3 C3.375 3.1875 3.375 3.1875 1 3 C0.67 2.01 0.34 1.02 0 0 Z " fill="#EAE8E2" transform="translate(361,691)"/>
<path d="M0 0 C0.66 0.33 1.32 0.66 2 1 C0 3 -2 5 -4 7 C-4.66 6.67 -5.32 6.34 -6 6 C-6 5.34 -6 4.68 -6 4 C-4.03852126 2.61061923 -2.03833424 1.2739589 0 0 Z " fill="#0C0C0C" transform="translate(354,672)"/>
<path d="M0 0 C0.66 0.66 1.32 1.32 2 2 C-1.98196457 3.05404945 -4.98195309 2.84098656 -9 2 C-5.54754176 -0.30163882 -4.05261287 -0.34490322 0 0 Z " fill="#1E1F1E" transform="translate(257,655)"/>
<path d="M0 0 C-2.35438733 1.42944945 -3.48032433 2.08661261 -6.25 1.625 C-6.8275 1.41875 -7.405 1.2125 -8 1 C-8 0.34 -8 -0.32 -8 -1 C-4.59745511 -2.2151946 -3.06748874 -1.86240388 0 0 Z " fill="#242524" transform="translate(232,635)"/>
<path d="M0 0 C0.99 0.495 0.99 0.495 2 1 C2.6328125 3.06640625 2.6328125 3.06640625 3.125 5.5625 C3.29257812 6.38878906 3.46015625 7.21507812 3.6328125 8.06640625 C3.75398438 8.70449219 3.87515625 9.34257812 4 10 C2 8.375 2 8.375 0 6 C-0.25 2.75 -0.25 2.75 0 0 Z " fill="#1B69CC" transform="translate(315,463)"/>
</svg>
